<svg width="512" height="512" viewBox="0 0 512 512" fill="none" xmlns="http://www.w3.org/2000/svg">
<g clip-path="url(#clip0)">
<path d="M507.879 197.312L262.224 2.17111C258.579 -0.723054 253.421 -0.723054 249.776 2.17111L4.121 197.312C0.788418 199.959 -0.50487 204.424 0.897273 208.443C2.29942 212.461 6.0894 215.153 10.3448 215.153H60.4993V501.994C60.4993 507.52 64.9794 512.001 70.5061 512.001H441.495C447.022 512.001 451.502 507.521 451.502 501.994V215.152H501.656C505.912 215.152 509.702 212.46 511.104 208.442C512.505 204.424 511.211 199.958 507.879 197.312V197.312ZM130.645 351.572H381.354V371.666H130.645V351.572ZM381.354 331.56H130.645V311.466H381.354V331.56ZM130.645 491.987V431.785H210.627C216.153 431.785 220.633 427.305 220.633 421.778C220.633 416.253 216.153 411.772 210.627 411.772H130.645V391.677H381.354V411.772H301.121C295.594 411.772 291.114 416.252 291.114 421.778C291.114 427.304 295.594 431.785 301.121 431.785H381.354V491.987H130.645ZM401.367 491.987V301.459C401.367 295.933 396.887 291.452 391.36 291.452H120.639C115.112 291.452 110.632 295.932 110.632 301.459V491.987H80.5118V213.81L255.999 75.8845L431.487 213.81V491.988H401.367V491.987ZM439.945 195.14L262.187 55.2878C258.557 52.4326 253.444 52.4326 249.814 55.2878L72.055 195.14H39.0288L256 22.7858L472.971 195.141H439.945V195.14Z" fill="#CE5F0E"/>
<path d="M335.211 173.127H176.789C171.262 173.127 166.782 177.607 166.782 183.133V251.315C166.782 256.841 171.262 261.322 176.789 261.322H335.211C340.738 261.322 345.218 256.842 345.218 251.315V183.133C345.217 177.608 340.737 173.127 335.211 173.127V173.127ZM325.204 241.308H186.795V193.139H325.204V241.308Z" fill="#CE5F0E"/>
<path d="M257.232 431.876C262.72 431.33 266.726 426.438 266.18 420.95C265.634 415.462 260.742 411.456 255.254 412.002C249.766 412.548 245.76 417.44 246.306 422.928C246.852 428.416 251.744 432.422 257.232 431.876Z" fill="#CE5F0E"/>
</g>
<defs>
<clipPath id="clip0">
<rect width="512" height="512" fill="white"/>
</clipPath>
</defs>
</svg>
