<svg width="291" height="81" viewBox="0 0 291 81" fill="none" xmlns="http://www.w3.org/2000/svg">
<g filter="url(#filter0_d)">
<path fill-rule="evenodd" clip-rule="evenodd" d="M40.2221 38.6634C40.1674 38.7361 40.123 38.8165 34.7507 47.6428C40.5463 48.5754 50.3672 51.3457 50.3672 57.4531C50.3672 64.4291 37.2745 68 25.1836 68C18.7177 68 12.6146 67.0494 7.99853 65.3233C1.38767 62.8514 0 59.6791 0 57.4531C0 51.3467 9.83246 48.5735 15.6163 47.6429L10.2066 38.7554C7.91369 35.4325 6.71563 31.4727 6.71563 27.4531C6.71563 16.7694 15.0159 8 25.1836 8C35.3845 8 43.6516 16.7867 43.6516 27.4531C43.6516 31.4752 42.4781 35.3341 40.2579 38.6128C40.237 38.6439 40.2295 38.6535 40.2221 38.6634ZM12.9535 36.7329C12.9737 36.7619 12.9929 36.7914 13.0114 36.8217L25.1836 56.819C37.3552 36.8223 37.4244 36.6967 37.512 36.5856C37.5182 36.5778 37.5245 36.57 37.5352 36.5552C39.34 33.8793 40.2938 30.7327 40.2938 27.4531C40.2938 18.6651 33.5153 11.5156 25.1836 11.5156C16.8345 11.5156 10.0734 18.662 10.0734 27.4531C10.0734 30.7275 11.0455 33.9846 12.9535 36.7329ZM3.35781 57.4531C3.35781 60.42 11.9769 64.4844 25.1836 64.4844C38.4679 64.4844 47.0094 60.3948 47.0094 57.4531C47.0094 55.4591 42.5805 52.1803 32.7665 50.9022L26.5993 61.0346C26.2911 61.541 25.7571 61.8477 25.1835 61.8477C24.6099 61.8477 24.076 61.5411 23.7677 61.0346L17.6003 50.9022C7.78654 52.1803 3.35781 55.4591 3.35781 57.4531ZM25.6611 37.4737C30.1448 37.4737 33.7796 33.4678 33.7796 28.5263C33.7796 23.5848 30.1448 19.5789 25.6611 19.5789C21.1775 19.5789 17.5427 23.5848 17.5427 28.5263C17.5427 33.4678 21.1775 37.4737 25.6611 37.4737Z" fill="#54595F"/>
<path d="M79.3945 26H77.1445V8.9375H79.3945V26ZM94.8633 15.1133H93.0352V22.7773C93.0352 23.2773 93.1406 23.6562 93.3516 23.9141C93.5625 24.1641 93.9219 24.2891 94.4297 24.2891C94.8047 24.2891 95.1445 24.2422 95.4492 24.1484L95.4609 25.918C94.9141 26.0664 94.3555 26.1406 93.7852 26.1406C91.8398 26.1406 90.8672 24.9922 90.8672 22.6953V15.1133H86.168V26H84V15.1133H82.0195V13.3203H94.8633V15.1133ZM109.16 15.1133H107.332V22.7773C107.332 23.2773 107.438 23.6562 107.648 23.9141C107.859 24.1641 108.219 24.2891 108.727 24.2891C109.102 24.2891 109.441 24.2422 109.746 24.1484L109.758 25.918C109.211 26.0664 108.652 26.1406 108.082 26.1406C106.137 26.1406 105.164 24.9922 105.164 22.6953V15.1133H100.465V26H98.2969V15.1133H96.3164V13.3203H109.16V15.1133ZM111.199 19.543C111.199 18.3008 111.441 17.1836 111.926 16.1914C112.418 15.1992 113.098 14.4336 113.965 13.8945C114.84 13.3555 115.836 13.0859 116.953 13.0859C118.68 13.0859 120.074 13.6836 121.137 14.8789C122.207 16.0742 122.742 17.6641 122.742 19.6484V19.8008C122.742 21.0352 122.504 22.1445 122.027 23.1289C121.559 24.1055 120.883 24.8672 120 25.4141C119.125 25.9609 118.117 26.2344 116.977 26.2344C115.258 26.2344 113.863 25.6367 112.793 24.4414C111.73 23.2461 111.199 21.6641 111.199 19.6953V19.543ZM113.379 19.8008C113.379 21.207 113.703 22.3359 114.352 23.1875C115.008 24.0391 115.883 24.4648 116.977 24.4648C118.078 24.4648 118.953 24.0352 119.602 23.1758C120.25 22.3086 120.574 21.0977 120.574 19.543C120.574 18.1523 120.242 17.0273 119.578 16.168C118.922 15.3008 118.047 14.8672 116.953 14.8672C115.883 14.8672 115.02 15.293 114.363 16.1445C113.707 16.9961 113.379 18.2148 113.379 19.8008ZM129.059 20.5977H127.805V26H125.625V13.3203H127.805V18.6875H128.871L133.523 13.3203H136.137L130.84 19.4727L136.559 26H133.828L129.059 20.5977ZM144.117 13.0859C145.734 13.0859 147.02 13.6367 147.973 14.7383C148.926 15.8398 149.445 17.3828 149.531 19.3672L149.543 20.1406C149.543 22.0156 149.105 23.5 148.23 24.5938C147.355 25.6875 146.172 26.2344 144.68 26.2344C143.156 26.2344 141.949 25.75 141.059 24.7812V30.875H138.879V19.2031C138.879 17.9688 139.098 16.8906 139.535 15.9688C139.98 15.0469 140.602 14.3359 141.398 13.8359C142.203 13.3359 143.109 13.0859 144.117 13.0859ZM141.059 22.7422C141.707 23.8906 142.699 24.4648 144.035 24.4648C145.09 24.4648 145.91 24.0859 146.496 23.3281C147.082 22.5625 147.375 21.418 147.375 19.8945C147.375 18.293 147.09 17.0547 146.52 16.1797C145.957 15.3047 145.156 14.8672 144.117 14.8672C143.203 14.8672 142.465 15.2891 141.902 16.1328C141.34 16.9766 141.059 18.0586 141.059 19.3789V22.7422ZM162.562 13.3203V22.6602C162.578 23.7539 162.891 24.3008 163.5 24.3008C163.648 24.3008 163.781 24.2812 163.898 24.2422L164.168 25.8477C163.793 26.1133 163.316 26.2461 162.738 26.2461C161.59 26.2461 160.867 25.6016 160.57 24.3125C159.734 25.6016 158.5 26.2461 156.867 26.2461C155.367 26.2461 154.172 25.6953 153.281 24.5938C152.391 23.4844 151.945 21.9766 151.945 20.0703V19.8945C151.945 17.832 152.387 16.1836 153.27 14.9492C154.152 13.707 155.359 13.0859 156.891 13.0859C158.477 13.0859 159.688 13.7148 160.523 14.9727L160.723 13.3203H162.562ZM154.113 20.1406C154.113 21.5078 154.398 22.5742 154.969 23.3398C155.539 24.0977 156.352 24.4766 157.406 24.4766C158.758 24.4766 159.754 23.75 160.395 22.2969V17.0703C159.73 15.6016 158.742 14.8672 157.43 14.8672C156.383 14.8672 155.566 15.3125 154.98 16.2031C154.402 17.0859 154.113 18.3984 154.113 20.1406ZM157.922 7.32031H159.961L158.602 11.2695H157.289L157.922 7.32031ZM175.887 15.0781H171.539V22.8477C171.539 23.8867 171.949 24.4062 172.77 24.4062C173.105 24.4062 173.465 24.3047 173.848 24.1016L174.34 25.625C173.746 26.0312 173.035 26.2344 172.207 26.2344C171.23 26.2344 170.512 25.9492 170.051 25.3789C169.598 24.8008 169.367 23.9414 169.359 22.8008V15.0781H165.293V13.3203H175.887V15.0781ZM177.668 19.543C177.668 18.3008 177.91 17.1836 178.395 16.1914C178.887 15.1992 179.566 14.4336 180.434 13.8945C181.309 13.3555 182.305 13.0859 183.422 13.0859C185.148 13.0859 186.543 13.6836 187.605 14.8789C188.676 16.0742 189.211 17.6641 189.211 19.6484V19.8008C189.211 21.0352 188.973 22.1445 188.496 23.1289C188.027 24.1055 187.352 24.8672 186.469 25.4141C185.594 25.9609 184.586 26.2344 183.445 26.2344C181.727 26.2344 180.332 25.6367 179.262 24.4414C178.199 23.2461 177.668 21.6641 177.668 19.6953V19.543ZM179.848 19.8008C179.848 21.207 180.172 22.3359 180.82 23.1875C181.477 24.0391 182.352 24.4648 183.445 24.4648C184.547 24.4648 185.422 24.0352 186.07 23.1758C186.719 22.3086 187.043 21.0977 187.043 19.543C187.043 18.1523 186.711 17.0273 186.047 16.168C185.391 15.3008 184.516 14.8672 183.422 14.8672C182.352 14.8672 181.488 15.293 180.832 16.1445C180.176 16.9961 179.848 18.2148 179.848 19.8008ZM194.145 13.3203V20.9023C194.145 23.2852 194.93 24.4766 196.5 24.4766C197.508 24.4766 198.344 23.9883 199.008 23.0117C199.672 22.0352 200.004 20.8359 200.004 19.4141C199.965 17.6094 199.484 15.5781 198.562 13.3203H200.848C201.73 15.2031 202.172 17.2344 202.172 19.4141C202.172 21.4688 201.668 23.1211 200.66 24.3711C199.66 25.6133 198.309 26.2344 196.605 26.2344C195.09 26.2344 193.941 25.7969 193.16 24.9219C192.379 24.0469 191.98 22.7695 191.965 21.0898V13.3203H194.145ZM210.105 13.0859C211.582 13.0859 212.77 13.5039 213.668 14.3398C214.574 15.168 215.027 16.2852 215.027 17.6914H212.977C212.977 16.832 212.715 16.1484 212.191 15.6406C211.668 15.125 210.973 14.8672 210.105 14.8672C209.074 14.8672 208.254 15.2969 207.645 16.1562C207.043 17.0078 206.742 18.1328 206.742 19.5312V19.9062C206.742 21.9375 207.992 23.3398 210.492 24.1133L212.062 24.5586C212.828 24.7852 213.367 25.0859 213.68 25.4609C213.992 25.8359 214.148 26.3359 214.148 26.9609C214.133 27.4531 213.93 28.0234 213.539 28.6719C213.156 29.3281 212.676 29.8984 212.098 30.3828L210.949 29.3867L211.5 28.7539C211.883 28.2852 212.074 27.7773 212.074 27.2305C212.074 26.8945 211.938 26.6406 211.664 26.4688C211.391 26.3047 210.918 26.1484 210.246 26C208.402 25.5938 206.996 24.8906 206.027 23.8906C205.059 22.8828 204.574 21.5547 204.574 19.9062V19.4141C204.574 18.2266 204.805 17.1445 205.266 16.168C205.734 15.1836 206.387 14.4258 207.223 13.8945C208.066 13.3555 209.027 13.0859 210.105 13.0859ZM234.855 26H223.676V24.4414L229.582 17.8789C230.457 16.8867 231.059 16.082 231.387 15.4648C231.723 14.8398 231.891 14.1953 231.891 13.5312C231.891 12.6406 231.621 11.9102 231.082 11.3398C230.543 10.7695 229.824 10.4844 228.926 10.4844C227.848 10.4844 227.008 10.793 226.406 11.4102C225.812 12.0195 225.516 12.8711 225.516 13.9648H223.348C223.348 12.3945 223.852 11.125 224.859 10.1562C225.875 9.1875 227.23 8.70312 228.926 8.70312C230.512 8.70312 231.766 9.12109 232.688 9.95703C233.609 10.7852 234.07 11.8906 234.07 13.2734C234.07 14.9531 233 16.9531 230.859 19.2734L226.289 24.2305H234.855V26ZM247.852 18.7227C247.852 21.2617 247.418 23.1484 246.551 24.3828C245.684 25.6172 244.328 26.2344 242.484 26.2344C240.664 26.2344 239.316 25.6328 238.441 24.4297C237.566 23.2188 237.113 21.4141 237.082 19.0156V16.1211C237.082 13.6133 237.516 11.75 238.383 10.5312C239.25 9.3125 240.609 8.70312 242.461 8.70312C244.297 8.70312 245.648 9.29297 246.516 10.4727C247.383 11.6445 247.828 13.457 247.852 15.9102V18.7227ZM245.684 15.7578C245.684 13.9219 245.426 12.5859 244.91 11.75C244.395 10.9062 243.578 10.4844 242.461 10.4844C241.352 10.4844 240.543 10.9023 240.035 11.7383C239.527 12.5742 239.266 13.8594 239.25 15.5938V19.0625C239.25 20.9062 239.516 22.2695 240.047 23.1523C240.586 24.0273 241.398 24.4648 242.484 24.4648C243.555 24.4648 244.348 24.0508 244.863 23.2227C245.387 22.3945 245.66 21.0898 245.684 19.3086V15.7578ZM261.328 18.7227C261.328 21.2617 260.895 23.1484 260.027 24.3828C259.16 25.6172 257.805 26.2344 255.961 26.2344C254.141 26.2344 252.793 25.6328 251.918 24.4297C251.043 23.2188 250.59 21.4141 250.559 19.0156V16.1211C250.559 13.6133 250.992 11.75 251.859 10.5312C252.727 9.3125 254.086 8.70312 255.938 8.70312C257.773 8.70312 259.125 9.29297 259.992 10.4727C260.859 11.6445 261.305 13.457 261.328 15.9102V18.7227ZM259.16 15.7578C259.16 13.9219 258.902 12.5859 258.387 11.75C257.871 10.9062 257.055 10.4844 255.938 10.4844C254.828 10.4844 254.02 10.9023 253.512 11.7383C253.004 12.5742 252.742 13.8594 252.727 15.5938V19.0625C252.727 20.9062 252.992 22.2695 253.523 23.1523C254.062 24.0273 254.875 24.4648 255.961 24.4648C257.031 24.4648 257.824 24.0508 258.34 23.2227C258.863 22.3945 259.137 21.0898 259.16 19.3086V15.7578Z" fill="#4054B2"/>
<path d="M81.6514 67.4023H77.4814L76.5449 70H75.1914L78.9922 60.0469H80.1406L83.9482 70H82.6016L81.6514 67.4023ZM77.8779 66.3223H81.2617L79.5664 61.667L77.8779 66.3223ZM91.2559 65.625C91.2559 67.0879 90.987 68.2067 90.4492 68.9814C89.9115 69.7516 89.1344 70.1367 88.1182 70.1367C87.1201 70.1367 86.3499 69.7585 85.8076 69.002C85.2653 68.2454 84.985 67.1654 84.9668 65.7617V64.3604C84.9668 62.9157 85.2357 61.8128 85.7734 61.0518C86.3112 60.2907 87.0882 59.9102 88.1045 59.9102C89.1162 59.9102 89.8887 60.2793 90.4219 61.0176C90.9596 61.7559 91.2376 62.8245 91.2559 64.2236V65.625ZM86.2314 64.5244H89.9844V64.1484C89.9844 63.1139 89.8249 62.3232 89.5059 61.7764C89.1914 61.2249 88.7243 60.9492 88.1045 60.9492C87.4938 60.9492 87.029 61.2249 86.71 61.7764C86.391 62.3232 86.2314 63.1139 86.2314 64.1484V64.5244ZM89.9844 65.5635H86.2314V65.8301C86.2314 66.8737 86.3978 67.6803 86.7305 68.25C87.0632 68.8197 87.5257 69.1045 88.1182 69.1045C88.7106 69.1045 89.1663 68.8311 89.4854 68.2842C89.8089 67.7373 89.9753 66.9466 89.9844 65.9121V65.5635ZM94.2363 62.6035L94.3115 63.5332C94.8584 62.8223 95.5876 62.4668 96.499 62.4668C97.3649 62.4668 97.9961 62.6924 98.3926 63.1436C98.7891 63.5902 98.9896 64.2783 98.9941 65.208V72.8369H97.7295V65.2832C97.7295 64.6634 97.6064 64.2122 97.3604 63.9297C97.1143 63.6471 96.6995 63.5059 96.1162 63.5059C95.6969 63.5059 95.3392 63.6061 95.043 63.8066C94.7467 64.0026 94.5212 64.2783 94.3662 64.6338V70H93.0947V62.6035H94.2363ZM95.9521 59.1035H97.1416L96.3486 61.4072H95.583L95.9521 59.1035ZM103.431 68.2842L105.263 62.6035H106.555L103.902 70H102.938L100.259 62.6035H101.551L103.431 68.2842ZM113.596 62.6035V68.0518C113.605 68.6898 113.787 69.0088 114.143 69.0088C114.229 69.0088 114.307 68.9974 114.375 68.9746L114.532 69.9111C114.313 70.0661 114.035 70.1436 113.698 70.1436C113.028 70.1436 112.607 69.7676 112.434 69.0156C111.946 69.7676 111.226 70.1436 110.273 70.1436C109.398 70.1436 108.701 69.8223 108.182 69.1797C107.662 68.5326 107.402 67.653 107.402 66.541V66.4385C107.402 65.2354 107.66 64.2738 108.175 63.5537C108.69 62.8291 109.394 62.4668 110.287 62.4668C111.212 62.4668 111.919 62.8337 112.406 63.5674L112.522 62.6035H113.596ZM108.667 66.582C108.667 67.3796 108.833 68.0016 109.166 68.4482C109.499 68.8903 109.973 69.1113 110.588 69.1113C111.376 69.1113 111.957 68.6875 112.331 67.8398V64.791C111.944 63.9342 111.367 63.5059 110.602 63.5059C109.991 63.5059 109.515 63.7656 109.173 64.2852C108.836 64.8001 108.667 65.5658 108.667 66.582ZM121.696 66.2881H118.36V65.2559H121.696V66.2881ZM130.433 70H129.161V61.5713L126.611 62.5078V61.3594L130.234 59.999H130.433V70ZM138.294 70H137.022V61.5713L134.473 62.5078V61.3594L138.096 59.999H138.294V70ZM147.338 66.6572H148.719V67.6895H147.338V70H146.066V67.6895H141.534V66.9443L145.991 60.0469H147.338V66.6572ZM142.97 66.6572H146.066V61.7764L145.916 62.0498L142.97 66.6572ZM159.759 60.7578L155.637 70H154.311L158.419 61.0859H153.032V60.0469H159.759V60.7578ZM165.351 70H164.079V61.5713L161.529 62.5078V61.3594L165.152 59.999H165.351V70Z" fill="#54595F"/>
</g>
<defs>
<filter id="filter0_d" x="0" y="7.32031" width="269.328" height="73.5166" filterUnits="userSpaceOnUse" color-interpolation-filters="sRGB">
<feFlood flood-opacity="0" result="BackgroundImageFix"/>
<feColorMatrix in="SourceAlpha" type="matrix" values="0 0 0 0 0 0 0 0 0 0 0 0 0 0 0 0 0 0 127 0"/>
<feOffset dx="4" dy="4"/>
<feGaussianBlur stdDeviation="2"/>
<feColorMatrix type="matrix" values="0 0 0 0 0 0 0 0 0 0 0 0 0 0 0 0 0 0 0.3 0"/>
<feBlend mode="normal" in2="BackgroundImageFix" result="effect1_dropShadow"/>
<feBlend mode="normal" in="SourceGraphic" in2="effect1_dropShadow" result="shape"/>
</filter>
</defs>
</svg>
