<svg width="240" height="68" viewBox="0 0 240 68" fill="none" xmlns="http://www.w3.org/2000/svg">
<g filter="url(#filter0_d)">
<path d="M21.2902 35.1548C16.6133 29.4279 15.5572 23.701 15.319 21.4065C15.2524 20.7721 15.4307 20.1358 15.8014 19.6851L19.5862 15.0527C20.143 14.3714 20.2418 13.3096 19.8245 12.4924L13.7983 1.03443C13.3366 0.129518 12.3887 -0.197075 11.6094 0.280295L1.93523 5.85926C1.30504 6.23924 0.93437 7.05911 1.00592 7.91478C1.51282 13.8113 3.61221 28.3065 15.2455 42.5524C26.8788 56.7982 38.7148 59.3679 43.5329 59.9886C44.2316 60.0762 44.9012 59.6223 45.2115 58.8506L49.7677 47.0048C50.1561 46.0526 49.8911 44.8949 49.1552 44.3286L39.7979 36.9517C39.1309 36.4401 38.2638 36.5603 37.7069 37.2413L33.9238 41.8758C33.5557 42.3297 33.0361 42.548 32.518 42.4665C30.6442 42.1748 25.9672 40.8817 21.2902 35.1548V35.1548Z" fill="#54595F"/>
<path d="M39.8621 32.069C38.9289 32.069 38.1724 31.1427 38.1724 30C38.1645 21.4341 32.4955 14.4925 25.5 14.4828C24.5668 14.4828 23.8104 13.5565 23.8104 12.4138C23.8104 11.2712 24.5668 10.3448 25.5 10.3448C34.3611 10.3568 41.542 19.1497 41.5517 30C41.5517 31.1427 40.7952 32.069 39.8621 32.069Z" fill="#54595F"/>
<path d="M48.3104 32.069C47.3772 32.069 46.6207 31.1427 46.6207 30C46.6077 15.7234 37.1592 4.15389 25.5 4.13793C24.5668 4.13793 23.8103 3.21162 23.8103 2.06897C23.8103 0.926307 24.5668 0 25.5 0C39.0248 0.018244 49.9851 13.439 50 30C50 30.5487 49.822 31.075 49.5051 31.463C49.1882 31.851 48.7585 32.069 48.3104 32.069Z" fill="#54595F"/>
<path d="M87.5801 15.0801V17.2266H87.1152C85.1465 17.263 83.5788 17.8464 82.4121 18.9766C81.2454 20.1068 80.571 21.6973 80.3887 23.748C81.4368 22.5449 82.8678 21.9434 84.6816 21.9434C86.4134 21.9434 87.7943 22.554 88.8242 23.7754C89.8633 24.9967 90.3828 26.5736 90.3828 28.5059C90.3828 30.5566 89.8223 32.1973 88.7012 33.4277C87.5892 34.6582 86.0944 35.2734 84.2168 35.2734C82.3118 35.2734 80.7669 34.5443 79.582 33.0859C78.3971 31.6185 77.8047 29.7318 77.8047 27.4258V26.4551C77.8047 22.791 78.584 19.9928 80.1426 18.0605C81.7103 16.1191 84.0391 15.1257 87.1289 15.0801H87.5801ZM84.2578 24.0488C83.3919 24.0488 82.5944 24.3086 81.8652 24.8281C81.1361 25.3477 80.6302 25.9993 80.3477 26.7832V27.7129C80.3477 29.3535 80.7168 30.6751 81.4551 31.6777C82.1934 32.6803 83.1139 33.1816 84.2168 33.1816C85.3561 33.1816 86.2493 32.7624 86.8965 31.9238C87.5527 31.0853 87.8809 29.987 87.8809 28.6289C87.8809 27.2617 87.5482 26.1589 86.8828 25.3203C86.2266 24.4727 85.3516 24.0488 84.2578 24.0488ZM103.07 26.25C102.542 26.8789 101.908 27.3848 101.17 27.7676C100.441 28.1504 99.6387 28.3418 98.7637 28.3418C97.6152 28.3418 96.6126 28.0592 95.7559 27.4941C94.9082 26.929 94.252 26.1361 93.7871 25.1152C93.3223 24.0853 93.0898 22.9505 93.0898 21.7109C93.0898 20.3802 93.3405 19.1816 93.8418 18.1152C94.3522 17.0488 95.0723 16.2331 96.002 15.668C96.9316 15.1029 98.0163 14.8203 99.2559 14.8203C101.225 14.8203 102.774 15.5586 103.904 17.0352C105.044 18.5026 105.613 20.5078 105.613 23.0508V23.7891C105.613 27.6628 104.848 30.4928 103.316 32.2793C101.785 34.0566 99.4746 34.9681 96.3848 35.0137H95.8926V32.8809H96.4258C98.513 32.8444 100.117 32.3021 101.238 31.2539C102.359 30.1966 102.97 28.5286 103.07 26.25ZM99.1738 26.25C100.021 26.25 100.801 25.9902 101.512 25.4707C102.232 24.9512 102.756 24.3086 103.084 23.543V22.5312C103.084 20.8724 102.724 19.5234 102.004 18.4844C101.284 17.4453 100.372 16.9258 99.2695 16.9258C98.1576 16.9258 97.2643 17.3542 96.5898 18.2109C95.9154 19.0586 95.5781 20.1797 95.5781 21.5742C95.5781 22.9323 95.9017 24.0534 96.5488 24.9375C97.2051 25.8125 98.0801 26.25 99.1738 26.25ZM112.777 23.8164H114.678C115.872 23.7982 116.811 23.4837 117.494 22.873C118.178 22.2624 118.52 21.4375 118.52 20.3984C118.52 18.0651 117.357 16.8984 115.033 16.8984C113.939 16.8984 113.064 17.2129 112.408 17.8418C111.761 18.4616 111.438 19.2865 111.438 20.3164H108.908C108.908 18.7396 109.482 17.4316 110.631 16.3926C111.788 15.3444 113.256 14.8203 115.033 14.8203C116.911 14.8203 118.383 15.3171 119.449 16.3105C120.516 17.304 121.049 18.6849 121.049 20.4531C121.049 21.319 120.766 22.1576 120.201 22.9688C119.645 23.7799 118.884 24.3861 117.918 24.7871C119.012 25.1335 119.855 25.7077 120.447 26.5098C121.049 27.3118 121.35 28.2917 121.35 29.4492C121.35 31.2357 120.766 32.653 119.6 33.7012C118.433 34.7493 116.915 35.2734 115.047 35.2734C113.178 35.2734 111.656 34.7676 110.48 33.7559C109.314 32.7441 108.73 31.4089 108.73 29.75H111.273C111.273 30.7982 111.615 31.6367 112.299 32.2656C112.982 32.8945 113.898 33.209 115.047 33.209C116.268 33.209 117.202 32.89 117.85 32.252C118.497 31.6139 118.82 30.6979 118.82 29.5039C118.82 28.3464 118.465 27.4577 117.754 26.8379C117.043 26.2181 116.018 25.8991 114.678 25.8809H112.777V23.8164ZM135.5 28.3145H138.262V30.3789H135.5V35H132.957V30.3789H123.893V28.8887L132.807 15.0938H135.5V28.3145ZM126.764 28.3145H132.957V18.5527L132.656 19.0996L126.764 28.3145ZM153.588 35H140.545V33.1816L147.436 25.5254C148.456 24.3678 149.158 23.429 149.541 22.709C149.933 21.9798 150.129 21.2279 150.129 20.4531C150.129 19.4141 149.814 18.5618 149.186 17.8965C148.557 17.2311 147.718 16.8984 146.67 16.8984C145.412 16.8984 144.432 17.2585 143.73 17.9785C143.038 18.6895 142.691 19.6829 142.691 20.959H140.162C140.162 19.127 140.75 17.6458 141.926 16.5156C143.111 15.3854 144.692 14.8203 146.67 14.8203C148.52 14.8203 149.983 15.3079 151.059 16.2832C152.134 17.2493 152.672 18.5391 152.672 20.1523C152.672 22.112 151.423 24.4453 148.926 27.1523L143.594 32.9355H153.588V35ZM169.311 35H156.268V33.1816L163.158 25.5254C164.179 24.3678 164.881 23.429 165.264 22.709C165.656 21.9798 165.852 21.2279 165.852 20.4531C165.852 19.4141 165.537 18.5618 164.908 17.8965C164.279 17.2311 163.441 16.8984 162.393 16.8984C161.135 16.8984 160.155 17.2585 159.453 17.9785C158.76 18.6895 158.414 19.6829 158.414 20.959H155.885C155.885 19.127 156.473 17.6458 157.648 16.5156C158.833 15.3854 160.415 14.8203 162.393 14.8203C164.243 14.8203 165.706 15.3079 166.781 16.2832C167.857 17.2493 168.395 18.5391 168.395 20.1523C168.395 22.112 167.146 24.4453 164.648 27.1523L159.316 32.9355H169.311V35ZM181.684 26.25C181.155 26.8789 180.521 27.3848 179.783 27.7676C179.054 28.1504 178.252 28.3418 177.377 28.3418C176.229 28.3418 175.226 28.0592 174.369 27.4941C173.521 26.929 172.865 26.1361 172.4 25.1152C171.936 24.0853 171.703 22.9505 171.703 21.7109C171.703 20.3802 171.954 19.1816 172.455 18.1152C172.965 17.0488 173.686 16.2331 174.615 15.668C175.545 15.1029 176.63 14.8203 177.869 14.8203C179.838 14.8203 181.387 15.5586 182.518 17.0352C183.657 18.5026 184.227 20.5078 184.227 23.0508V23.7891C184.227 27.6628 183.461 30.4928 181.93 32.2793C180.398 34.0566 178.088 34.9681 174.998 35.0137H174.506V32.8809H175.039C177.126 32.8444 178.73 32.3021 179.852 31.2539C180.973 30.1966 181.583 28.5286 181.684 26.25ZM177.787 26.25C178.635 26.25 179.414 25.9902 180.125 25.4707C180.845 24.9512 181.369 24.3086 181.697 23.543V22.5312C181.697 20.8724 181.337 19.5234 180.617 18.4844C179.897 17.4453 178.986 16.9258 177.883 16.9258C176.771 16.9258 175.878 17.3542 175.203 18.2109C174.529 19.0586 174.191 20.1797 174.191 21.5742C174.191 22.9323 174.515 24.0534 175.162 24.9375C175.818 25.8125 176.693 26.25 177.787 26.25ZM188.875 25.0195L189.887 15.0938H200.086V17.4316H192.033L191.432 22.8594C192.407 22.2852 193.514 21.998 194.754 21.998C196.568 21.998 198.008 22.5996 199.074 23.8027C200.141 24.9967 200.674 26.6146 200.674 28.6562C200.674 30.707 200.118 32.3249 199.006 33.5098C197.903 34.6855 196.358 35.2734 194.371 35.2734C192.612 35.2734 191.176 34.7858 190.064 33.8105C188.952 32.8353 188.319 31.4863 188.164 29.7637H190.557C190.712 30.903 191.117 31.7643 191.773 32.3477C192.43 32.9219 193.296 33.209 194.371 33.209C195.547 33.209 196.467 32.8079 197.133 32.0059C197.807 31.2038 198.145 30.0964 198.145 28.6836C198.145 27.3529 197.78 26.2865 197.051 25.4844C196.331 24.6732 195.369 24.2676 194.166 24.2676C193.063 24.2676 192.197 24.5091 191.568 24.9922L190.898 25.5391L188.875 25.0195ZM207.113 23.8164H209.014C210.208 23.7982 211.146 23.4837 211.83 22.873C212.514 22.2624 212.855 21.4375 212.855 20.3984C212.855 18.0651 211.693 16.8984 209.369 16.8984C208.275 16.8984 207.4 17.2129 206.744 17.8418C206.097 18.4616 205.773 19.2865 205.773 20.3164H203.244C203.244 18.7396 203.818 17.4316 204.967 16.3926C206.124 15.3444 207.592 14.8203 209.369 14.8203C211.247 14.8203 212.719 15.3171 213.785 16.3105C214.852 17.304 215.385 18.6849 215.385 20.4531C215.385 21.319 215.102 22.1576 214.537 22.9688C213.981 23.7799 213.22 24.3861 212.254 24.7871C213.348 25.1335 214.191 25.7077 214.783 26.5098C215.385 27.3118 215.686 28.2917 215.686 29.4492C215.686 31.2357 215.102 32.653 213.936 33.7012C212.769 34.7493 211.251 35.2734 209.383 35.2734C207.514 35.2734 205.992 34.7676 204.816 33.7559C203.65 32.7441 203.066 31.4089 203.066 29.75H205.609C205.609 30.7982 205.951 31.6367 206.635 32.2656C207.318 32.8945 208.234 33.209 209.383 33.209C210.604 33.209 211.538 32.89 212.186 32.252C212.833 31.6139 213.156 30.6979 213.156 29.5039C213.156 28.3464 212.801 27.4577 212.09 26.8379C211.379 26.2181 210.354 25.8991 209.014 25.8809H207.113V23.8164ZM222.836 23.8164H224.736C225.93 23.7982 226.869 23.4837 227.553 22.873C228.236 22.2624 228.578 21.4375 228.578 20.3984C228.578 18.0651 227.416 16.8984 225.092 16.8984C223.998 16.8984 223.123 17.2129 222.467 17.8418C221.82 18.4616 221.496 19.2865 221.496 20.3164H218.967C218.967 18.7396 219.541 17.4316 220.689 16.3926C221.847 15.3444 223.314 14.8203 225.092 14.8203C226.969 14.8203 228.441 15.3171 229.508 16.3105C230.574 17.304 231.107 18.6849 231.107 20.4531C231.107 21.319 230.825 22.1576 230.26 22.9688C229.704 23.7799 228.943 24.3861 227.977 24.7871C229.07 25.1335 229.913 25.7077 230.506 26.5098C231.107 27.3118 231.408 28.2917 231.408 29.4492C231.408 31.2357 230.825 32.653 229.658 33.7012C228.492 34.7493 226.974 35.2734 225.105 35.2734C223.237 35.2734 221.715 34.7676 220.539 33.7559C219.372 32.7441 218.789 31.4089 218.789 29.75H221.332C221.332 30.7982 221.674 31.6367 222.357 32.2656C223.041 32.8945 223.957 33.209 225.105 33.209C226.327 33.209 227.261 32.89 227.908 32.252C228.555 31.6139 228.879 30.6979 228.879 29.5039C228.879 28.3464 228.523 27.4577 227.812 26.8379C227.102 26.2181 226.076 25.8991 224.736 25.8809H222.836V23.8164Z" fill="#4054B2"/>
</g>
<defs>
<filter id="filter0_d" x="0.997139" y="0" width="238.411" height="68" filterUnits="userSpaceOnUse" color-interpolation-filters="sRGB">
<feFlood flood-opacity="0" result="BackgroundImageFix"/>
<feColorMatrix in="SourceAlpha" type="matrix" values="0 0 0 0 0 0 0 0 0 0 0 0 0 0 0 0 0 0 127 0"/>
<feOffset dx="4" dy="4"/>
<feGaussianBlur stdDeviation="2"/>
<feColorMatrix type="matrix" values="0 0 0 0 0 0 0 0 0 0 0 0 0 0 0 0 0 0 0.3 0"/>
<feBlend mode="normal" in2="BackgroundImageFix" result="effect1_dropShadow"/>
<feBlend mode="normal" in="SourceGraphic" in2="effect1_dropShadow" result="shape"/>
</filter>
</defs>
</svg>
