<svg width="346" height="100" viewBox="0 0 346 100" fill="none" xmlns="http://www.w3.org/2000/svg">
<g filter="url(#filter0_d)">
<path d="M50.1451 56.3027H46.0889L38.6975 71.1657H47.0649L47.0538 76.1224L50.1007 76.1314L50.1117 71.1656H52V67.65H50.1198L50.1451 56.3027ZM47.0729 67.6501H43.9588L47.0869 61.3598L47.0729 67.6501Z" fill="#54595F"/>
<path d="M37.369 67.2708C38.3128 65.7148 39.0003 64.0524 39.1828 62.1821C39.1828 58.9618 36.9122 56.3417 34.1211 56.3417C31.7079 56.3417 29.6191 58.3226 29.1544 61.0519L28.8608 62.7768L31.8506 63.4544L32.1442 61.7295C32.3289 60.6447 33.1604 59.8572 34.1211 59.8572C35.2041 59.8572 36.0902 60.8481 36.1342 62.0855C35.9298 63.2603 35.4764 64.2598 34.8728 65.2548C31.5399 70.7494 30.0825 72.5491 30.0709 72.5632L29.6526 73.0697L29.643 76.057L39.7642 76.0927L39.7735 72.5771L34.0165 72.5568C34.8239 71.357 35.9294 69.6443 37.369 67.2708V67.2708Z" fill="#54595F"/>
<path d="M42.7656 49.2422C42.0386 39.9313 35.5928 32.4952 27.5234 31.6561V35.2383H24.4766V31.6566C16.4075 32.4958 9.96298 39.9318 9.23569 49.2422H12.3398V52.7578H9.23528C9.96247 62.0686 16.4071 69.5062 24.4766 70.345V66.7618H27.5234V55.9866C27.0465 56.1811 26.534 56.2881 26 56.2881C25.2917 56.2881 24.6206 56.1016 24.0212 55.7692L20.9412 59.323L18.7867 56.8371L21.8667 53.2833C21.5786 52.5918 21.417 51.8173 21.417 51C21.417 48.7003 22.6963 46.7398 24.4766 46.0135V40.4092H27.5234V46.0135C29.3037 46.7398 30.583 48.7002 30.583 51C30.583 51.6162 30.4903 52.2075 30.3217 52.7578H39.6602V49.2422H42.7656Z" fill="#54595F"/>
<path d="M26 52.7725C26.8484 52.7725 27.5361 51.9789 27.5361 51C27.5361 50.0211 26.8484 49.2275 26 49.2275C25.1516 49.2275 24.4639 50.0211 24.4639 51C24.4639 51.9789 25.1516 52.7725 26 52.7725Z" fill="#54595F"/>
<path d="M44.3847 29.7867C39.474 24.1205 32.9448 21 26 21C19.0552 21 12.526 24.1205 7.61526 29.7867C2.70441 35.4531 0 42.9867 0 51C0 59.0133 2.70441 66.5469 7.61526 72.2133C12.526 77.8795 19.0552 81 26 81H27.5234V73.9395H26C15.0376 73.9395 6.11914 63.6489 6.11914 51C6.11914 38.3511 15.0376 28.0605 26 28.0605C36.9624 28.0605 45.8809 38.3511 45.8809 51V52.7578H52V51C52 42.9867 49.2956 35.4531 44.3847 29.7867V29.7867Z" fill="#54595F"/>
<path d="M88.5703 19.9375H90.5625L97.3477 37H81.3633L88.5703 19.9375ZM84.4336 35.1602H94.3242L89.5312 22.6914L84.4336 35.1602ZM109.547 29.1133H102.152V35.1602H110.742V37H99.9023V19.9375H110.625V21.7891H102.152V27.2734H109.547V29.1133ZM118.746 28.5039L123.199 19.9375H125.754L119.871 30.6367V37H117.621V30.6367L111.738 19.9375H114.316L118.746 28.5039ZM139.746 21.7891H134.262V37H132.023V21.7891H126.551V19.9375H139.746V21.7891ZM151.934 30.6367H146.215V28.8672H151.934V30.6367ZM167.203 28.5859L161.988 35.1602H171.164V37H159.176V35.3242L164.812 28.457L159.176 21.625V19.9375H170.59V21.7891H162.012L167.203 28.3047V28.5859ZM183.48 32.5469H176.332L174.727 37H172.406L178.922 19.9375H180.891L187.418 37H185.109L183.48 32.5469ZM177.012 30.6953H182.812L179.906 22.7148L177.012 30.6953ZM189.715 37V19.9375H195.293C197.145 19.9375 198.535 20.3203 199.465 21.0859C200.402 21.8516 200.871 22.9844 200.871 24.4844C200.871 25.2812 200.645 25.9883 200.191 26.6055C199.738 27.2148 199.121 27.6875 198.34 28.0234C199.262 28.2812 199.988 28.7734 200.52 29.5C201.059 30.2188 201.328 31.0781 201.328 32.0781C201.328 33.6094 200.832 34.8125 199.84 35.6875C198.848 36.5625 197.445 37 195.633 37H189.715ZM191.965 29.0195V35.1602H195.68C196.727 35.1602 197.551 34.8906 198.152 34.3516C198.762 33.8047 199.066 33.0547 199.066 32.1016C199.066 30.0469 197.949 29.0195 195.715 29.0195H191.965ZM191.965 27.2148H195.363C196.348 27.2148 197.133 26.9688 197.719 26.4766C198.312 25.9844 198.609 25.3164 198.609 24.4727C198.609 23.5352 198.336 22.8555 197.789 22.4336C197.242 22.0039 196.41 21.7891 195.293 21.7891H191.965V27.2148ZM204.258 35.8633C204.258 35.4883 204.367 35.1758 204.586 34.9258C204.812 34.6758 205.148 34.5508 205.594 34.5508C206.039 34.5508 206.375 34.6758 206.602 34.9258C206.836 35.1758 206.953 35.4883 206.953 35.8633C206.953 36.2227 206.836 36.5234 206.602 36.7656C206.375 37.0078 206.039 37.1289 205.594 37.1289C205.148 37.1289 204.812 37.0078 204.586 36.7656C204.367 36.5234 204.258 36.2227 204.258 35.8633ZM204.27 25.5156C204.27 25.1406 204.379 24.8281 204.598 24.5781C204.824 24.3281 205.16 24.2031 205.605 24.2031C206.051 24.2031 206.387 24.3281 206.613 24.5781C206.848 24.8281 206.965 25.1406 206.965 25.5156C206.965 25.875 206.848 26.1758 206.613 26.418C206.387 26.6602 206.051 26.7812 205.605 26.7812C205.16 26.7812 204.824 26.6602 204.598 26.418C204.379 26.1758 204.27 25.875 204.27 25.5156ZM226.219 24.3906C226.219 25.2422 225.992 26 225.539 26.6641C225.094 27.3281 224.488 27.8477 223.723 28.2227C224.613 28.6055 225.316 29.1641 225.832 29.8984C226.355 30.6328 226.617 31.4648 226.617 32.3945C226.617 33.8711 226.117 35.0469 225.117 35.9219C224.125 36.7969 222.816 37.2344 221.191 37.2344C219.551 37.2344 218.234 36.7969 217.242 35.9219C216.258 35.0391 215.766 33.8633 215.766 32.3945C215.766 31.4727 216.016 30.6406 216.516 29.8984C217.023 29.1562 217.723 28.5938 218.613 28.2109C217.855 27.8359 217.258 27.3164 216.82 26.6523C216.383 25.9883 216.164 25.2344 216.164 24.3906C216.164 22.9531 216.625 21.8125 217.547 20.9688C218.469 20.125 219.684 19.7031 221.191 19.7031C222.691 19.7031 223.902 20.125 224.824 20.9688C225.754 21.8125 226.219 22.9531 226.219 24.3906ZM224.449 32.3477C224.449 31.3945 224.145 30.6172 223.535 30.0156C222.934 29.4141 222.145 29.1133 221.168 29.1133C220.191 29.1133 219.406 29.4102 218.812 30.0039C218.227 30.5977 217.934 31.3789 217.934 32.3477C217.934 33.3164 218.219 34.0781 218.789 34.6328C219.367 35.1875 220.168 35.4648 221.191 35.4648C222.207 35.4648 223.004 35.1875 223.582 34.6328C224.16 34.0703 224.449 33.3086 224.449 32.3477ZM221.191 21.4844C220.34 21.4844 219.648 21.75 219.117 22.2812C218.594 22.8047 218.332 23.5195 218.332 24.4258C218.332 25.293 218.59 25.9961 219.105 26.5352C219.629 27.0664 220.324 27.332 221.191 27.332C222.059 27.332 222.75 27.0664 223.266 26.5352C223.789 25.9961 224.051 25.293 224.051 24.4258C224.051 23.5586 223.781 22.8516 223.242 22.3047C222.703 21.7578 222.02 21.4844 221.191 21.4844ZM229.5 35.8633C229.5 35.4883 229.609 35.1758 229.828 34.9258C230.055 34.6758 230.391 34.5508 230.836 34.5508C231.281 34.5508 231.617 34.6758 231.844 34.9258C232.078 35.1758 232.195 35.4883 232.195 35.8633C232.195 36.2227 232.078 36.5234 231.844 36.7656C231.617 37.0078 231.281 37.1289 230.836 37.1289C230.391 37.1289 230.055 37.0078 229.828 36.7656C229.609 36.5234 229.5 36.2227 229.5 35.8633ZM229.512 25.5156C229.512 25.1406 229.621 24.8281 229.84 24.5781C230.066 24.3281 230.402 24.2031 230.848 24.2031C231.293 24.2031 231.629 24.3281 231.855 24.5781C232.09 24.8281 232.207 25.1406 232.207 25.5156C232.207 25.875 232.09 26.1758 231.855 26.418C231.629 26.6602 231.293 26.7812 230.848 26.7812C230.402 26.7812 230.066 26.6602 229.84 26.418C229.621 26.1758 229.512 25.875 229.512 25.5156ZM245.859 29.7227C245.859 32.2617 245.426 34.1484 244.559 35.3828C243.691 36.6172 242.336 37.2344 240.492 37.2344C238.672 37.2344 237.324 36.6328 236.449 35.4297C235.574 34.2188 235.121 32.4141 235.09 30.0156V27.1211C235.09 24.6133 235.523 22.75 236.391 21.5312C237.258 20.3125 238.617 19.7031 240.469 19.7031C242.305 19.7031 243.656 20.293 244.523 21.4727C245.391 22.6445 245.836 24.457 245.859 26.9102V29.7227ZM243.691 26.7578C243.691 24.9219 243.434 23.5859 242.918 22.75C242.402 21.9062 241.586 21.4844 240.469 21.4844C239.359 21.4844 238.551 21.9023 238.043 22.7383C237.535 23.5742 237.273 24.8594 237.258 26.5938V30.0625C237.258 31.9062 237.523 33.2695 238.055 34.1523C238.594 35.0273 239.406 35.4648 240.492 35.4648C241.562 35.4648 242.355 35.0508 242.871 34.2227C243.395 33.3945 243.668 32.0898 243.691 30.3086V26.7578ZM259.336 29.7227C259.336 32.2617 258.902 34.1484 258.035 35.3828C257.168 36.6172 255.812 37.2344 253.969 37.2344C252.148 37.2344 250.801 36.6328 249.926 35.4297C249.051 34.2188 248.598 32.4141 248.566 30.0156V27.1211C248.566 24.6133 249 22.75 249.867 21.5312C250.734 20.3125 252.094 19.7031 253.945 19.7031C255.781 19.7031 257.133 20.293 258 21.4727C258.867 22.6445 259.312 24.457 259.336 26.9102V29.7227ZM257.168 26.7578C257.168 24.9219 256.91 23.5859 256.395 22.75C255.879 21.9062 255.062 21.4844 253.945 21.4844C252.836 21.4844 252.027 21.9023 251.52 22.7383C251.012 23.5742 250.75 24.8594 250.734 26.5938V30.0625C250.734 31.9062 251 33.2695 251.531 34.1523C252.07 35.0273 252.883 35.4648 253.969 35.4648C255.039 35.4648 255.832 35.0508 256.348 34.2227C256.871 33.3945 257.145 32.0898 257.168 30.3086V26.7578ZM272.801 30.6367H267.082V28.8672H272.801V30.6367ZM287.777 37H285.598V22.5508L281.227 24.1562V22.1875L287.438 19.8555H287.777V37ZM305.145 21.1562L298.078 37H295.805L302.848 21.7188H293.613V19.9375H305.145V21.1562ZM307.758 35.8633C307.758 35.4883 307.867 35.1758 308.086 34.9258C308.312 34.6758 308.648 34.5508 309.094 34.5508C309.539 34.5508 309.875 34.6758 310.102 34.9258C310.336 35.1758 310.453 35.4883 310.453 35.8633C310.453 36.2227 310.336 36.5234 310.102 36.7656C309.875 37.0078 309.539 37.1289 309.094 37.1289C308.648 37.1289 308.312 37.0078 308.086 36.7656C307.867 36.5234 307.758 36.2227 307.758 35.8633ZM307.77 25.5156C307.77 25.1406 307.879 24.8281 308.098 24.5781C308.324 24.3281 308.66 24.2031 309.105 24.2031C309.551 24.2031 309.887 24.3281 310.113 24.5781C310.348 24.8281 310.465 25.1406 310.465 25.5156C310.465 25.875 310.348 26.1758 310.113 26.418C309.887 26.6602 309.551 26.7812 309.105 26.7812C308.66 26.7812 308.324 26.6602 308.098 26.418C307.879 26.1758 307.77 25.875 307.77 25.5156ZM324.117 29.7227C324.117 32.2617 323.684 34.1484 322.816 35.3828C321.949 36.6172 320.594 37.2344 318.75 37.2344C316.93 37.2344 315.582 36.6328 314.707 35.4297C313.832 34.2188 313.379 32.4141 313.348 30.0156V27.1211C313.348 24.6133 313.781 22.75 314.648 21.5312C315.516 20.3125 316.875 19.7031 318.727 19.7031C320.562 19.7031 321.914 20.293 322.781 21.4727C323.648 22.6445 324.094 24.457 324.117 26.9102V29.7227ZM321.949 26.7578C321.949 24.9219 321.691 23.5859 321.176 22.75C320.66 21.9062 319.844 21.4844 318.727 21.4844C317.617 21.4844 316.809 21.9023 316.301 22.7383C315.793 23.5742 315.531 24.8594 315.516 26.5938V30.0625C315.516 31.9062 315.781 33.2695 316.312 34.1523C316.852 35.0273 317.664 35.4648 318.75 35.4648C319.82 35.4648 320.613 35.0508 321.129 34.2227C321.652 33.3945 321.926 32.0898 321.949 30.3086V26.7578ZM337.594 29.7227C337.594 32.2617 337.16 34.1484 336.293 35.3828C335.426 36.6172 334.07 37.2344 332.227 37.2344C330.406 37.2344 329.059 36.6328 328.184 35.4297C327.309 34.2188 326.855 32.4141 326.824 30.0156V27.1211C326.824 24.6133 327.258 22.75 328.125 21.5312C328.992 20.3125 330.352 19.7031 332.203 19.7031C334.039 19.7031 335.391 20.293 336.258 21.4727C337.125 22.6445 337.57 24.457 337.594 26.9102V29.7227ZM335.426 26.7578C335.426 24.9219 335.168 23.5859 334.652 22.75C334.137 21.9062 333.32 21.4844 332.203 21.4844C331.094 21.4844 330.285 21.9023 329.777 22.7383C329.27 23.5742 329.008 24.8594 328.992 26.5938V30.0625C328.992 31.9062 329.258 33.2695 329.789 34.1523C330.328 35.0273 331.141 35.4648 332.227 35.4648C333.297 35.4648 334.09 35.0508 334.605 34.2227C335.129 33.3945 335.402 32.0898 335.426 30.3086V26.7578Z" fill="#4054B2"/>
<path d="M82.1553 81V71.0469H85.4092C86.4893 71.0469 87.3005 71.2702 87.8428 71.7168C88.3896 72.1634 88.6631 72.8242 88.6631 73.6992C88.6631 74.1641 88.5309 74.5765 88.2666 74.9365C88.0023 75.292 87.6423 75.5677 87.1865 75.7637C87.7243 75.9141 88.1481 76.2012 88.458 76.625C88.7725 77.0443 88.9297 77.5456 88.9297 78.1289C88.9297 79.0221 88.6403 79.724 88.0615 80.2344C87.4827 80.7448 86.6647 81 85.6074 81H82.1553ZM83.4678 76.3447V79.9268H85.6348C86.2454 79.9268 86.7262 79.7695 87.0771 79.4551C87.4326 79.1361 87.6104 78.6986 87.6104 78.1426C87.6104 76.944 86.9587 76.3447 85.6553 76.3447H83.4678ZM83.4678 75.292H85.4502C86.0244 75.292 86.4824 75.1484 86.8242 74.8613C87.1706 74.5742 87.3438 74.1846 87.3438 73.6924C87.3438 73.1455 87.1842 72.749 86.8652 72.5029C86.5462 72.2523 86.0609 72.127 85.4092 72.127H83.4678V75.292ZM93.7695 73.4668C94.7129 73.4668 95.4626 73.7881 96.0186 74.4307C96.5745 75.0732 96.8776 75.9733 96.9277 77.1309L96.9346 77.582C96.9346 78.6758 96.6794 79.5417 96.1689 80.1797C95.6585 80.8177 94.9681 81.1367 94.0977 81.1367C93.209 81.1367 92.5049 80.8542 91.9854 80.2891V83.8438H90.7139V77.0352C90.7139 76.3151 90.8415 75.6862 91.0967 75.1484C91.3564 74.6107 91.7188 74.196 92.1836 73.9043C92.653 73.6126 93.1816 73.4668 93.7695 73.4668ZM91.9854 79.0996C92.3636 79.7695 92.9424 80.1045 93.7217 80.1045C94.3369 80.1045 94.8154 79.8835 95.1572 79.4414C95.499 78.9948 95.6699 78.3271 95.6699 77.4385C95.6699 76.5042 95.5036 75.7819 95.1709 75.2715C94.8428 74.7611 94.3757 74.5059 93.7695 74.5059C93.2363 74.5059 92.8057 74.752 92.4775 75.2441C92.1494 75.7363 91.9854 76.3675 91.9854 77.1377V79.0996ZM100.25 73.6035V79.1338C100.25 79.4209 100.312 79.6374 100.435 79.7832C100.562 79.929 100.772 80.002 101.063 80.002C101.282 80.002 101.48 79.9746 101.658 79.9199L101.665 80.9521C101.346 81.0387 101.02 81.082 100.688 81.082C99.5527 81.082 98.9854 80.4121 98.9854 79.0723V73.6035H100.25ZM109.923 74.6494H107.981C108.893 75.3239 109.349 76.2832 109.349 77.5273V77.6436C109.349 78.2816 109.21 78.8695 108.932 79.4072C108.654 79.9404 108.262 80.362 107.756 80.6719C107.255 80.9818 106.685 81.1367 106.047 81.1367C105.053 81.1367 104.254 80.7926 103.647 80.1045C103.041 79.4118 102.738 78.4844 102.738 77.3223V77.2334C102.738 76.5407 102.873 75.9186 103.142 75.3672C103.41 74.8158 103.791 74.3851 104.283 74.0752C104.78 73.7653 105.347 73.6081 105.985 73.6035H109.923V74.6494ZM104.01 77.3838C104.01 78.2178 104.192 78.8809 104.557 79.373C104.921 79.8607 105.418 80.1045 106.047 80.1045C106.68 80.1045 107.177 79.8584 107.537 79.3662C107.902 78.8695 108.084 78.1585 108.084 77.2334C108.084 76.4495 107.899 75.8229 107.53 75.3535C107.166 74.8841 106.667 74.6494 106.033 74.6494C105.409 74.6494 104.914 74.8818 104.55 75.3467C104.19 75.8115 104.01 76.4906 104.01 77.3838ZM113.067 77.8486H112.336V81H111.064V73.6035H112.336V76.7344H112.958L115.672 73.6035H117.196L114.106 77.1924L117.442 81H115.85L113.067 77.8486ZM118.427 77.2334C118.427 76.5088 118.568 75.8571 118.851 75.2783C119.138 74.6995 119.534 74.2529 120.04 73.9385C120.55 73.624 121.132 73.4668 121.783 73.4668C122.79 73.4668 123.604 73.8154 124.224 74.5127C124.848 75.21 125.16 76.1374 125.16 77.2949V77.3838C125.16 78.1038 125.021 78.751 124.743 79.3252C124.47 79.8949 124.076 80.3392 123.561 80.6582C123.05 80.9772 122.462 81.1367 121.797 81.1367C120.794 81.1367 119.981 80.7881 119.356 80.0908C118.737 79.3936 118.427 78.4707 118.427 77.3223V77.2334ZM119.698 77.3838C119.698 78.2041 119.887 78.8626 120.266 79.3594C120.648 79.8561 121.159 80.1045 121.797 80.1045C122.439 80.1045 122.95 79.8538 123.328 79.3525C123.706 78.8467 123.896 78.1403 123.896 77.2334C123.896 76.4222 123.702 75.766 123.314 75.2646C122.932 74.7588 122.421 74.5059 121.783 74.5059C121.159 74.5059 120.655 74.7542 120.272 75.251C119.89 75.7477 119.698 76.4587 119.698 77.3838ZM121.633 70.1035H122.822L122.029 72.4072H121.264L121.633 70.1035ZM128.106 73.6035V77.9307C128.111 78.6735 128.229 79.2227 128.462 79.5781C128.699 79.9336 129.082 80.1113 129.61 80.1113C130.517 80.1113 131.112 79.765 131.395 79.0723V73.6035H132.666V81H131.524L131.463 80.2139C131.039 80.8291 130.44 81.1367 129.665 81.1367C128.995 81.1367 128.476 80.9704 128.106 80.6377V83.8438H126.842V73.6035H128.106ZM140.596 73.6035V79.0518C140.605 79.6898 140.787 80.0088 141.143 80.0088C141.229 80.0088 141.307 79.9974 141.375 79.9746L141.532 80.9111C141.313 81.0661 141.035 81.1436 140.698 81.1436C140.028 81.1436 139.607 80.7676 139.434 80.0156C138.946 80.7676 138.226 81.1436 137.273 81.1436C136.398 81.1436 135.701 80.8223 135.182 80.1797C134.662 79.5326 134.402 78.653 134.402 77.541V77.4385C134.402 76.2354 134.66 75.2738 135.175 74.5537C135.69 73.8291 136.394 73.4668 137.287 73.4668C138.212 73.4668 138.919 73.8337 139.406 74.5674L139.522 73.6035H140.596ZM135.667 77.582C135.667 78.3796 135.833 79.0016 136.166 79.4482C136.499 79.8903 136.973 80.1113 137.588 80.1113C138.376 80.1113 138.957 79.6875 139.331 78.8398V75.791C138.944 74.9342 138.367 74.5059 137.602 74.5059C136.991 74.5059 136.515 74.7656 136.173 75.2852C135.836 75.8001 135.667 76.5658 135.667 77.582ZM149.476 74.6494H147.534C148.446 75.3239 148.901 76.2832 148.901 77.5273V77.6436C148.901 78.2816 148.762 78.8695 148.484 79.4072C148.206 79.9404 147.814 80.362 147.309 80.6719C146.807 80.9818 146.238 81.1367 145.6 81.1367C144.606 81.1367 143.806 80.7926 143.2 80.1045C142.594 79.4118 142.291 78.4844 142.291 77.3223V77.2334C142.291 76.5407 142.425 75.9186 142.694 75.3672C142.963 74.8158 143.344 74.3851 143.836 74.0752C144.333 73.7653 144.9 73.6081 145.538 73.6035H149.476V74.6494ZM143.562 77.3838C143.562 78.2178 143.745 78.8809 144.109 79.373C144.474 79.8607 144.971 80.1045 145.6 80.1045C146.233 80.1045 146.73 79.8584 147.09 79.3662C147.454 78.8695 147.637 78.1585 147.637 77.2334C147.637 76.4495 147.452 75.8229 147.083 75.3535C146.718 74.8841 146.219 74.6494 145.586 74.6494C144.962 74.6494 144.467 74.8818 144.103 75.3467C143.743 75.8115 143.562 76.4906 143.562 77.3838ZM156.38 74.6289H153.844V79.1611C153.844 79.7673 154.083 80.0703 154.562 80.0703C154.757 80.0703 154.967 80.0111 155.19 79.8926L155.478 80.7812C155.131 81.0182 154.716 81.1367 154.233 81.1367C153.664 81.1367 153.244 80.9704 152.976 80.6377C152.711 80.3005 152.577 79.7992 152.572 79.1338V74.6289H150.2V73.6035H156.38V74.6289ZM158.902 78.9219C158.902 79.2728 159.069 79.5599 159.401 79.7832C159.739 80.0065 160.176 80.1182 160.714 80.1182C161.229 80.1182 161.662 79.9928 162.013 79.7422C162.368 79.4915 162.546 79.1816 162.546 78.8125H163.811C163.811 79.5189 163.519 80.084 162.936 80.5078C162.357 80.9271 161.616 81.1367 160.714 81.1367C159.784 81.1367 159.037 80.9362 158.472 80.5352C157.907 80.1296 157.624 79.5918 157.624 78.9219C157.624 78.0742 158.091 77.5 159.025 77.1992C158.624 77.0352 158.312 76.8141 158.089 76.5361C157.866 76.2581 157.754 75.9528 157.754 75.6201C157.754 74.9456 158.016 74.4193 158.54 74.041C159.069 73.6628 159.793 73.4736 160.714 73.4736C161.562 73.4736 162.268 73.6787 162.833 74.0889C163.403 74.4945 163.688 75.0208 163.688 75.668H162.423C162.423 75.349 162.259 75.0755 161.931 74.8477C161.607 74.6152 161.201 74.499 160.714 74.499C160.203 74.499 159.793 74.6038 159.483 74.8135C159.178 75.0186 159.025 75.2897 159.025 75.627C159.025 76.3561 159.581 76.7207 160.693 76.7207H162.033V77.7324H160.502C159.436 77.7598 158.902 78.1562 158.902 78.9219ZM175.808 74.6494H173.866C174.778 75.3239 175.233 76.2832 175.233 77.5273V77.6436C175.233 78.2816 175.094 78.8695 174.816 79.4072C174.538 79.9404 174.146 80.362 173.641 80.6719C173.139 80.9818 172.57 81.1367 171.932 81.1367C170.938 81.1367 170.138 80.7926 169.532 80.1045C168.926 79.4118 168.623 78.4844 168.623 77.3223V77.2334C168.623 76.5407 168.757 75.9186 169.026 75.3672C169.295 74.8158 169.676 74.3851 170.168 74.0752C170.665 73.7653 171.232 73.6081 171.87 73.6035H175.808V74.6494ZM169.895 77.3838C169.895 78.2178 170.077 78.8809 170.441 79.373C170.806 79.8607 171.303 80.1045 171.932 80.1045C172.565 80.1045 173.062 79.8584 173.422 79.3662C173.786 78.8695 173.969 78.1585 173.969 77.2334C173.969 76.4495 173.784 75.8229 173.415 75.3535C173.05 74.8841 172.551 74.6494 171.918 74.6494C171.294 74.6494 170.799 74.8818 170.435 75.3467C170.075 75.8115 169.895 76.4906 169.895 77.3838ZM182.712 74.6289H180.176V79.1611C180.176 79.7673 180.415 80.0703 180.894 80.0703C181.09 80.0703 181.299 80.0111 181.522 79.8926L181.81 80.7812C181.463 81.0182 181.049 81.1367 180.565 81.1367C179.996 81.1367 179.576 80.9704 179.308 80.6377C179.043 80.3005 178.909 79.7992 178.904 79.1338V74.6289H176.532V73.6035H182.712V74.6289ZM185.412 73.6035L185.487 74.5332C186.034 73.8223 186.763 73.4668 187.675 73.4668C188.541 73.4668 189.172 73.6924 189.568 74.1436C189.965 74.5902 190.165 75.2783 190.17 76.208V83.8369H188.905V76.2832C188.905 75.6634 188.782 75.2122 188.536 74.9297C188.29 74.6471 187.875 74.5059 187.292 74.5059C186.873 74.5059 186.515 74.6061 186.219 74.8066C185.923 75.0026 185.697 75.2783 185.542 75.6338V81H184.271V73.6035H185.412ZM194.606 79.2842L196.438 73.6035H197.73L195.078 81H194.114L191.435 73.6035H192.727L194.606 79.2842ZM202.974 72.3252C202.974 71.7054 203.204 71.2155 203.664 70.8555C204.129 70.4909 204.76 70.3086 205.558 70.3086C206.191 70.3086 206.813 70.4339 207.424 70.6846L207.41 71.7783C206.722 71.5094 206.095 71.375 205.53 71.375C205.138 71.375 204.826 71.457 204.594 71.6211C204.366 71.7852 204.252 72.0085 204.252 72.291C204.252 72.7832 204.756 73.2048 205.763 73.5557C206.774 73.902 207.515 74.3828 207.984 74.998C208.458 75.6087 208.707 76.3607 208.729 77.2539V77.5205C208.729 78.2178 208.595 78.8444 208.326 79.4004C208.057 79.9518 207.672 80.3802 207.171 80.6855C206.674 80.9863 206.095 81.1367 205.435 81.1367C204.423 81.1367 203.616 80.8018 203.015 80.1318C202.418 79.4574 202.119 78.5687 202.119 77.4658V77.377C202.119 76.625 202.333 75.9482 202.762 75.3467C203.19 74.7451 203.732 74.3646 204.389 74.2051L204.382 74.1709C203.931 73.9932 203.582 73.7448 203.336 73.4258C203.094 73.1068 202.974 72.7399 202.974 72.3252ZM203.397 77.5205C203.397 78.3226 203.58 78.9561 203.944 79.4209C204.313 79.8812 204.81 80.1113 205.435 80.1113C206.054 80.1113 206.547 79.8812 206.911 79.4209C207.276 78.9606 207.458 78.2793 207.458 77.377C207.458 76.7572 207.264 76.1989 206.877 75.7021C206.494 75.2008 206.018 74.8932 205.448 74.7793C204.828 74.7793 204.332 75.014 203.958 75.4834C203.584 75.9482 203.397 76.6273 203.397 77.5205ZM211.99 73.6035V79.1338C211.99 79.4209 212.052 79.6374 212.175 79.7832C212.302 79.929 212.512 80.002 212.804 80.002C213.022 80.002 213.221 79.9746 213.398 79.9199L213.405 80.9521C213.086 81.0387 212.76 81.082 212.428 81.082C211.293 81.082 210.726 80.4121 210.726 79.0723V73.6035H211.99ZM220.699 73.6035V79.0518C220.708 79.6898 220.891 80.0088 221.246 80.0088C221.333 80.0088 221.41 79.9974 221.479 79.9746L221.636 80.9111C221.417 81.0661 221.139 81.1436 220.802 81.1436C220.132 81.1436 219.71 80.7676 219.537 80.0156C219.049 80.7676 218.329 81.1436 217.377 81.1436C216.502 81.1436 215.805 80.8223 215.285 80.1797C214.766 79.5326 214.506 78.653 214.506 77.541V77.4385C214.506 76.2354 214.763 75.2738 215.278 74.5537C215.793 73.8291 216.497 73.4668 217.391 73.4668C218.316 73.4668 219.022 73.8337 219.51 74.5674L219.626 73.6035H220.699ZM215.771 77.582C215.771 78.3796 215.937 79.0016 216.27 79.4482C216.602 79.8903 217.076 80.1113 217.691 80.1113C218.48 80.1113 219.061 79.6875 219.435 78.8398V75.791C219.047 74.9342 218.471 74.5059 217.705 74.5059C217.094 74.5059 216.618 74.7656 216.276 75.2852C215.939 75.8001 215.771 76.5658 215.771 77.582ZM217.992 70.1035H219.182L218.389 72.4072H217.623L217.992 70.1035ZM228.861 76.625C228.861 78.0879 228.592 79.2067 228.055 79.9814C227.517 80.7516 226.74 81.1367 225.724 81.1367C224.726 81.1367 223.955 80.7585 223.413 80.002C222.871 79.2454 222.59 78.1654 222.572 76.7617V75.3604C222.572 73.9157 222.841 72.8128 223.379 72.0518C223.917 71.2907 224.694 70.9102 225.71 70.9102C226.722 70.9102 227.494 71.2793 228.027 72.0176C228.565 72.7559 228.843 73.8245 228.861 75.2236V76.625ZM223.837 75.5244H227.59V75.1484C227.59 74.1139 227.43 73.3232 227.111 72.7764C226.797 72.2249 226.33 71.9492 225.71 71.9492C225.099 71.9492 224.634 72.2249 224.315 72.7764C223.996 73.3232 223.837 74.1139 223.837 75.1484V75.5244ZM227.59 76.5635H223.837V76.8301C223.837 77.8737 224.003 78.6803 224.336 79.25C224.669 79.8197 225.131 80.1045 225.724 80.1045C226.316 80.1045 226.772 79.8311 227.091 79.2842C227.414 78.7373 227.581 77.9466 227.59 76.9121V76.5635ZM231.664 78.9219C231.664 79.2728 231.83 79.5599 232.163 79.7832C232.5 80.0065 232.938 80.1182 233.476 80.1182C233.991 80.1182 234.424 79.9928 234.774 79.7422C235.13 79.4915 235.308 79.1816 235.308 78.8125H236.572C236.572 79.5189 236.281 80.084 235.697 80.5078C235.118 80.9271 234.378 81.1367 233.476 81.1367C232.546 81.1367 231.799 80.9362 231.233 80.5352C230.668 80.1296 230.386 79.5918 230.386 78.9219C230.386 78.0742 230.853 77.5 231.787 77.1992C231.386 77.0352 231.074 76.8141 230.851 76.5361C230.627 76.2581 230.516 75.9528 230.516 75.6201C230.516 74.9456 230.778 74.4193 231.302 74.041C231.83 73.6628 232.555 73.4736 233.476 73.4736C234.323 73.4736 235.03 73.6787 235.595 74.0889C236.164 74.4945 236.449 75.0208 236.449 75.668H235.185C235.185 75.349 235.021 75.0755 234.692 74.8477C234.369 74.6152 233.963 74.499 233.476 74.499C232.965 74.499 232.555 74.6038 232.245 74.8135C231.94 75.0186 231.787 75.2897 231.787 75.627C231.787 76.3561 232.343 76.7207 233.455 76.7207H234.795V77.7324H233.264C232.197 77.7598 231.664 78.1562 231.664 78.9219ZM245.097 74.6494H243.155C244.067 75.3239 244.522 76.2832 244.522 77.5273V77.6436C244.522 78.2816 244.383 78.8695 244.105 79.4072C243.827 79.9404 243.436 80.362 242.93 80.6719C242.428 80.9818 241.859 81.1367 241.221 81.1367C240.227 81.1367 239.427 80.7926 238.821 80.1045C238.215 79.4118 237.912 78.4844 237.912 77.3223V77.2334C237.912 76.5407 238.047 75.9186 238.315 75.3672C238.584 74.8158 238.965 74.3851 239.457 74.0752C239.954 73.7653 240.521 73.6081 241.159 73.6035H245.097V74.6494ZM239.184 77.3838C239.184 78.2178 239.366 78.8809 239.73 79.373C240.095 79.8607 240.592 80.1045 241.221 80.1045C241.854 80.1045 242.351 79.8584 242.711 79.3662C243.076 78.8695 243.258 78.1585 243.258 77.2334C243.258 76.4495 243.073 75.8229 242.704 75.3535C242.34 74.8841 241.84 74.6494 241.207 74.6494C240.583 74.6494 240.088 74.8818 239.724 75.3467C239.364 75.8115 239.184 76.4906 239.184 77.3838ZM247.318 73.6035L247.394 74.5332C247.94 73.8223 248.67 73.4668 249.581 73.4668C250.447 73.4668 251.078 73.6924 251.475 74.1436C251.871 74.5902 252.072 75.2783 252.076 76.208V83.8369H250.812V76.2832C250.812 75.6634 250.688 75.2122 250.442 74.9297C250.196 74.6471 249.782 74.5059 249.198 74.5059C248.779 74.5059 248.421 74.6061 248.125 74.8066C247.829 75.0026 247.603 75.2783 247.448 75.6338V81H246.177V73.6035H247.318ZM264.429 74.6494H262.487C263.399 75.3239 263.854 76.2832 263.854 77.5273V77.6436C263.854 78.2816 263.715 78.8695 263.438 79.4072C263.16 79.9404 262.768 80.362 262.262 80.6719C261.76 80.9818 261.191 81.1367 260.553 81.1367C259.559 81.1367 258.759 80.7926 258.153 80.1045C257.547 79.4118 257.244 78.4844 257.244 77.3223V77.2334C257.244 76.5407 257.379 75.9186 257.647 75.3672C257.916 74.8158 258.297 74.3851 258.789 74.0752C259.286 73.7653 259.853 73.6081 260.491 73.6035H264.429V74.6494ZM258.516 77.3838C258.516 78.2178 258.698 78.8809 259.062 79.373C259.427 79.8607 259.924 80.1045 260.553 80.1045C261.186 80.1045 261.683 79.8584 262.043 79.3662C262.408 78.8695 262.59 78.1585 262.59 77.2334C262.59 76.4495 262.405 75.8229 262.036 75.3535C261.672 74.8841 261.173 74.6494 260.539 74.6494C259.915 74.6494 259.42 74.8818 259.056 75.3467C258.696 75.8115 258.516 76.4906 258.516 77.3838ZM271.395 73.6035V79.0518C271.404 79.6898 271.586 80.0088 271.941 80.0088C272.028 80.0088 272.105 79.9974 272.174 79.9746L272.331 80.9111C272.112 81.0661 271.834 81.1436 271.497 81.1436C270.827 81.1436 270.406 80.7676 270.232 80.0156C269.745 80.7676 269.025 81.1436 268.072 81.1436C267.197 81.1436 266.5 80.8223 265.98 80.1797C265.461 79.5326 265.201 78.653 265.201 77.541V77.4385C265.201 76.2354 265.459 75.2738 265.974 74.5537C266.489 73.8291 267.193 73.4668 268.086 73.4668C269.011 73.4668 269.717 73.8337 270.205 74.5674L270.321 73.6035H271.395ZM266.466 77.582C266.466 78.3796 266.632 79.0016 266.965 79.4482C267.298 79.8903 267.771 80.1113 268.387 80.1113C269.175 80.1113 269.756 79.6875 270.13 78.8398V75.791C269.743 74.9342 269.166 74.5059 268.4 74.5059C267.79 74.5059 267.313 74.7656 266.972 75.2852C266.634 75.8001 266.466 76.5658 266.466 77.582ZM276.351 73.4668C277.212 73.4668 277.905 73.7106 278.429 74.1982C278.957 74.6813 279.222 75.333 279.222 76.1533H278.025C278.025 75.652 277.873 75.2533 277.567 74.957C277.262 74.6562 276.856 74.5059 276.351 74.5059C275.749 74.5059 275.271 74.7565 274.915 75.2578C274.564 75.7546 274.389 76.4108 274.389 77.2266V77.4453C274.389 78.6302 275.118 79.4482 276.576 79.8994L277.492 80.1592C277.939 80.2913 278.253 80.4668 278.436 80.6855C278.618 80.9043 278.709 81.196 278.709 81.5605C278.7 81.8477 278.581 82.1803 278.354 82.5586C278.13 82.9414 277.85 83.2741 277.513 83.5566L276.843 82.9756L277.164 82.6064C277.387 82.333 277.499 82.0368 277.499 81.7178C277.499 81.5218 277.419 81.3737 277.26 81.2734C277.1 81.1777 276.825 81.0866 276.433 81C275.357 80.763 274.537 80.3529 273.972 79.7695C273.407 79.1816 273.124 78.4069 273.124 77.4453V77.1582C273.124 76.4655 273.258 75.8343 273.527 75.2646C273.801 74.6904 274.181 74.2484 274.669 73.9385C275.161 73.624 275.722 73.4668 276.351 73.4668Z" fill="#54595F"/>
</g>
<defs>
<filter id="filter0_d" x="0" y="19.7031" width="345.594" height="72.1406" filterUnits="userSpaceOnUse" color-interpolation-filters="sRGB">
<feFlood flood-opacity="0" result="BackgroundImageFix"/>
<feColorMatrix in="SourceAlpha" type="matrix" values="0 0 0 0 0 0 0 0 0 0 0 0 0 0 0 0 0 0 127 0"/>
<feOffset dx="4" dy="4"/>
<feGaussianBlur stdDeviation="2"/>
<feColorMatrix type="matrix" values="0 0 0 0 0 0 0 0 0 0 0 0 0 0 0 0 0 0 0.3 0"/>
<feBlend mode="normal" in2="BackgroundImageFix" result="effect1_dropShadow"/>
<feBlend mode="normal" in="SourceGraphic" in2="effect1_dropShadow" result="shape"/>
</filter>
</defs>
</svg>
