<svg width="491" height="351" viewBox="0 0 491 351" fill="none" xmlns="http://www.w3.org/2000/svg">
<g filter="url(#filter0_d)">
<path fill-rule="evenodd" clip-rule="evenodd" d="M240.01 3.35305L239.086 0L238.088 3.33194L224.824 47.6263L224.605 47.5685C222.751 54.6209 220.033 61.492 216.152 66.5796C212.29 71.6437 207.327 74.8827 200.914 74.8827C187.965 74.8827 177.255 62.8929 177.255 47.8228C177.255 38.2722 184.033 30.7568 192.131 30.7568C200.28 30.7568 207.683 38.3284 207.683 47.8228C207.683 50.1997 207.217 51.7208 206.513 52.7156C205.822 53.6919 204.813 54.2856 203.449 54.631C202.062 54.9826 200.377 55.0593 198.428 55.0367C197.64 55.0276 196.776 55.0007 195.878 54.9728H195.878H195.878H195.877H195.877H195.877H195.877H195.877H195.877H195.877H195.876H195.876L195.876 54.9728C194.656 54.9348 193.373 54.8948 192.131 54.8948C191.579 54.8948 191.131 55.3425 191.131 55.8948C191.131 56.4471 191.579 56.8948 192.131 56.8948C193.39 56.8948 194.57 56.9325 195.732 56.9696H195.732H195.732H195.732H195.732H195.733L195.733 56.9696L195.733 56.9696C196.626 56.9981 197.507 57.0262 198.405 57.0366C200.381 57.0595 202.286 56.9891 203.94 56.5698C205.619 56.1444 207.103 55.3437 208.146 53.8711C209.175 52.417 209.683 50.4347 209.683 47.8228C209.683 37.3621 201.518 28.7568 192.131 28.7568C182.693 28.7568 175.255 37.4183 175.255 47.8228C175.255 51.5578 175.881 55.1395 177.023 58.4342C172.985 54.4062 167.519 51.9332 161.5 51.9332C149.074 51.9332 139 62.4754 139 75.4797C139 88.4841 149.074 99.0262 161.5 99.0262C167.905 99.0262 173.686 96.2252 177.783 91.7296C175.946 95.7402 174.911 100.288 174.911 105.089C174.911 115.495 182.358 124.155 191.805 124.155C201.2 124.155 209.375 115.551 209.375 105.089C209.375 102.475 208.865 100.476 207.843 98.9923C206.81 97.4915 205.335 96.6383 203.655 96.1607C201.997 95.6897 200.088 95.5694 198.103 95.5566C197.105 95.5502 196.067 95.5712 195.016 95.5935L194.897 95.596H194.896C193.879 95.6176 192.848 95.6394 191.805 95.6394C191.252 95.6394 190.805 96.0871 190.805 96.6394C190.805 97.1917 191.252 97.6394 191.805 97.6394C192.869 97.6394 193.919 97.6171 194.93 97.5957H194.93L194.931 97.5957H194.931H194.932H194.932H194.932L195.058 97.593C196.113 97.5707 197.124 97.5503 198.09 97.5565C200.035 97.5691 201.721 97.6904 203.108 98.0846C204.472 98.4722 205.495 99.1079 206.196 100.127C206.91 101.163 207.375 102.714 207.375 105.089C207.375 114.582 199.964 122.155 191.805 122.155C183.696 122.155 176.911 114.639 176.911 105.089C176.911 90.0201 187.632 78.0291 200.597 78.0291C213.562 78.0291 224.283 90.0201 224.283 105.089C224.283 112.595 221.927 117.939 217.816 122.11C213.663 126.324 207.659 129.403 200.242 132.214L200.35 132.497L85.8672 170.725L85.8321 170.715C64.2458 164.819 47.1962 159.186 37.4593 140.918C36.896 139.862 36.3571 138.762 35.8433 137.619C35.7069 138.878 35.5564 140.099 35.3909 141.281C32.2676 163.603 23.807 172.502 3.83551 181.356C2.60144 181.903 1.32343 182.45 0 183C1.43169 183.117 2.81396 183.251 4.14934 183.404C26.3566 185.944 35.5915 193.655 43.3547 214.529C43.8057 215.741 44.2516 216.998 44.6949 218.301C44.9047 216.957 45.1509 215.651 45.4331 214.383C49.9027 194.294 63.3822 183.508 83.5761 173.962L204.704 211.455L204.76 211.276C215.494 215.184 224.283 223.998 224.283 237.183C224.283 252.324 213.558 264.366 200.597 264.366C187.636 264.366 176.911 252.324 176.911 237.183H174.911C174.911 242.006 175.946 246.574 177.785 250.603C173.687 246.087 167.906 243.272 161.5 243.272C149.074 243.272 139 253.861 139 266.922C139 279.983 149.074 290.572 161.5 290.572C167.519 290.572 172.986 288.088 177.024 284.041C175.881 287.351 175.255 290.949 175.255 294.7C175.255 305.144 182.689 313.846 192.131 313.846C201.522 313.846 209.683 305.201 209.683 294.7C209.683 292.078 209.175 290.089 208.147 288.63C207.105 287.152 205.621 286.347 203.941 285.92C202.286 285.498 200.381 285.428 198.405 285.451C197.507 285.461 196.626 285.489 195.733 285.518H195.733H195.732H195.732H195.732H195.731H195.731H195.73H195.73C194.569 285.555 193.39 285.593 192.131 285.593C191.579 285.593 191.131 286.041 191.131 286.593C191.131 287.145 191.579 287.593 192.131 287.593M240.01 3.35305L252.725 49.479ZM252.725 49.479L252.623 49.5072ZM252.623 49.5072C254.719 56.3701 257.286 62.4946 260.75 67.0099ZM260.75 67.0099C264.509 71.9104 269.291 74.8827 275.723 74.8827ZM275.723 74.8827C288.662 74.8827 299.364 62.8936 299.364 47.8228ZM299.364 47.8228C299.364 38.2715 292.591 30.7568 284.499 30.7568ZM284.499 30.7568C276.357 30.7568 268.959 38.3277 268.959 47.8228ZM268.959 47.8228C268.959 50.1998 269.424 51.721 270.127 52.7159ZM270.127 52.7159C270.818 53.6921 271.827 54.2857 273.189 54.6311ZM273.189 54.6311C274.575 54.9826 276.259 55.0593 278.207 55.0367ZM278.207 55.0367C278.994 55.0276 279.856 55.0007 280.754 54.9728ZM280.754 54.9728L280.755 54.9728ZM280.755 54.9728C281.975 54.9348 283.258 54.8948 284.499 54.8948ZM284.499 54.8948C285.051 54.8948 285.499 55.3425 285.499 55.8948ZM285.499 55.8948C285.499 56.4471 285.051 56.8948 284.499 56.8948ZM284.499 56.8948C283.241 56.8948 282.061 56.9325 280.9 56.9696ZM280.899 56.9696C280.007 56.9981 279.127 57.0262 278.23 57.0366ZM278.23 57.0366C276.255 57.0595 274.351 56.9891 272.697 56.5697ZM272.697 56.5697C271.02 56.1443 269.536 55.3435 268.495 53.8708ZM268.495 53.8708C267.466 52.4168 266.959 50.4346 266.959 47.8228ZM266.959 47.8228C266.959 37.3627 275.117 28.7568 284.499 28.7568ZM284.499 28.7568C293.932 28.7568 301.364 37.4189 301.364 47.8228ZM301.364 47.8228C301.364 51.2377 300.842 54.5244 299.88 57.5808ZM299.88 57.5808C303.812 54.0598 308.919 51.9332 314.5 51.9332ZM314.5 51.9332C326.926 51.9332 337 62.4754 337 75.4797ZM337 75.4797C337 88.4841 326.926 99.0262 314.5 99.0262ZM314.5 99.0262C308.657 99.0262 303.334 96.6953 299.334 92.8735ZM299.334 92.8735C300.859 96.5966 301.708 100.739 301.708 105.089ZM301.708 105.089C301.708 115.494 294.267 124.155 284.825 124.155ZM284.825 124.155C275.435 124.155 267.267 115.55 267.267 105.089ZM267.267 105.089C267.267 102.475 267.775 100.476 268.797 98.9926ZM268.797 98.9926C269.83 97.4917 271.303 96.6384 272.983 96.1608ZM272.983 96.1608C274.64 95.6897 276.548 95.5694 278.531 95.5566ZM278.531 95.5566C279.529 95.5502 280.566 95.5712 281.617 95.5935ZM281.617 95.5935L281.735 95.596ZM281.735 95.596H281.736ZM281.736 95.596C282.752 95.6176 283.782 95.6394 284.825 95.6394ZM284.825 95.6394C285.378 95.6394 285.825 96.0871 285.825 96.6394ZM285.825 96.6394C285.825 97.1917 285.378 97.6394 284.825 97.6394ZM284.825 97.6394C283.76 97.6394 282.711 97.6171 281.7 97.5957ZM281.7 97.5957L281.574 97.593ZM281.574 97.593C280.52 97.5707 279.51 97.5503 278.544 97.5565ZM278.544 97.5565C276.6 97.5691 274.916 97.6904 273.53 98.0845ZM273.53 98.0845C272.167 98.4721 271.145 99.1076 270.444 100.126ZM270.444 100.126C269.731 101.162 269.267 102.714 269.267 105.089ZM269.267 105.089C269.267 114.583 276.672 122.155 284.825 122.155ZM284.825 122.155C292.928 122.155 299.708 114.639 299.708 105.089ZM299.708 105.089C299.708 90.0194 288.994 78.0291 276.039 78.0291ZM276.039 78.0291C263.084 78.0291 252.37 90.0194 252.37 105.089ZM252.37 105.089C252.37 119.904 263.915 127.587 276.387 132.211ZM276.387 132.211L276.384 132.218ZM276.384 132.218L392.611 170.567ZM392.611 170.567L392.881 170.441ZM392.881 170.441C414.041 160.579 427.95 149.752 431.544 128.991ZM431.544 128.991C431.764 127.717 431.946 126.405 432.088 125.053ZM432.088 125.053C432.596 126.327 433.103 127.557 433.613 128.744ZM433.613 128.744C442.551 149.545 452.272 157.189 474.856 159.621ZM474.856 159.621C476.192 159.765 477.572 159.891 479 160ZM479 160C477.682 160.558 476.411 161.113 475.185 161.667ZM475.185 161.667C455.558 170.546 447.502 179.431 445.519 201.604ZM445.519 201.604C445.413 202.798 445.324 204.03 445.251 205.303ZM445.251 205.303C444.68 204.181 444.087 203.103 443.472 202.065ZM443.472 202.065C432.751 183.985 415.378 178.41 393.445 172.656ZM393.445 172.656L393.302 172.702ZM393.302 172.702L276.31 209.816ZM276.31 209.816L276.354 209.949ZM276.354 209.949C269.664 212.173 263.661 215.262 259.339 219.644ZM259.339 219.644C255.044 224 252.37 229.67 252.37 237.183ZM252.37 237.183C252.37 252.325 263.088 264.366 276.039 264.366ZM276.039 264.366C288.99 264.366 299.708 252.325 299.708 237.183ZM299.708 237.183C299.708 227.585 292.924 220.038 284.825 220.038ZM284.825 220.038C276.676 220.038 269.267 227.641 269.267 237.183ZM269.267 237.183C269.267 239.569 269.731 241.13 270.445 242.171ZM270.445 242.171C271.147 243.196 272.169 243.834 273.531 244.223ZM273.531 244.223C274.917 244.618 276.6 244.74 278.544 244.753ZM278.544 244.753C279.51 244.759 280.52 244.739 281.574 244.716ZM281.574 244.716L281.7 244.714ZM281.7 244.714C282.711 244.692 283.76 244.67 284.825 244.67ZM284.825 244.67C285.378 244.67 285.825 245.117 285.825 245.67ZM285.825 245.67C285.825 246.222 285.378 246.67 284.825 246.67ZM284.825 246.67C283.783 246.67 282.753 246.692 281.737 246.713ZM281.737 246.713L281.736 246.713ZM281.736 246.713L281.617 246.716ZM281.617 246.716C280.566 246.738 279.529 246.759 278.531 246.753ZM278.531 246.753C276.547 246.74 274.639 246.619 272.982 246.146ZM272.982 246.146C271.301 245.666 269.828 244.809 268.795 243.302ZM268.795 243.302C267.775 241.813 267.267 239.807 267.267 237.183ZM267.267 237.183C267.267 226.682 275.431 218.038 284.825 218.038ZM284.825 218.038C294.271 218.038 301.708 226.739 301.708 237.183ZM301.708 237.183C301.708 241.553 300.859 245.713 299.333 249.453ZM299.333 249.453C303.333 245.614 308.656 243.272 314.5 243.272ZM314.5 243.272C326.926 243.272 337 253.861 337 266.922ZM337 266.922C337 279.983 326.926 290.572 314.5 290.572ZM314.5 290.572C308.919 290.572 303.812 288.436 299.879 284.899ZM299.879 284.899C300.842 287.969 301.364 291.27 301.364 294.7ZM301.364 294.7C301.364 305.144 293.935 313.846 284.499 313.846ZM284.499 313.846C275.113 313.846 266.959 305.2 266.959 294.7ZM266.959 294.7C266.959 292.078 267.466 290.089 268.493 288.63ZM268.493 288.63C269.534 287.152 271.018 286.347 272.696 285.92ZM272.696 285.92C274.351 285.498 276.255 285.427 278.23 285.451ZM278.23 285.451C279.127 285.461 280.008 285.489 280.9 285.518ZM280.9 285.518H280.9ZM280.9 285.518H280.901ZM280.901 285.518H280.901ZM280.901 285.518H280.902ZM280.902 285.518H280.902ZM280.902 285.518H280.902ZM280.902 285.518C282.062 285.555 283.241 285.593 284.499 285.593ZM284.499 285.593C285.051 285.593 285.499 286.041 285.499 286.593ZM285.499 286.593C285.499 287.145 285.051 287.593 284.499 287.593ZM284.499 287.593C283.258 287.593 281.976 287.553 280.756 287.515ZM280.756 287.515L280.755 287.515ZM280.755 287.515C279.857 287.487 278.994 287.46 278.207 287.45ZM278.207 287.45C276.259 287.428 274.576 287.505 273.19 287.858ZM273.19 287.858C271.829 288.204 270.82 288.8 270.129 289.782ZM270.129 289.782C269.424 290.782 268.959 292.312 268.959 294.7ZM268.959 294.7C268.959 304.243 276.361 311.846 284.499 311.846ZM284.499 311.846C292.587 311.846 299.364 304.3 299.364 294.7ZM299.364 294.7C299.364 279.557 288.658 267.517 275.723 267.517ZM275.723 267.517C269.293 267.517 264.511 270.502 260.751 275.425ZM260.751 275.425C257.287 279.961 254.719 286.113 252.623 293.007ZM252.623 293.007L252.725 293.035ZM252.725 293.035L240.01 339.363ZM240.01 339.363L239.086 342.732ZM239.086 342.732L238.087 339.384ZM238.087 339.384L224.824 294.896ZM224.824 294.896L224.604 294.954ZM224.604 294.954C222.75 287.87 220.032 280.968 216.151 275.857ZM216.151 275.857C212.287 270.77 207.325 267.517 200.914 267.517ZM200.914 267.517C187.969 267.517 177.255 279.558 177.255 294.7ZM177.255 294.7C177.255 304.299 184.037 311.846 192.131 311.846ZM192.131 311.846C200.276 311.846 207.683 304.243 207.683 294.7ZM207.683 294.7C207.683 292.312 207.217 290.782 206.512 289.782ZM206.512 289.782C205.82 288.8 204.811 288.204 203.448 287.858ZM203.448 287.858C202.061 287.505 200.377 287.428 198.428 287.45ZM198.428 287.45C197.64 287.46 196.776 287.487 195.877 287.515ZM250.37 105.089C250.37 113.685 253.959 120.013 259.215 124.758C252.775 121.706 245.585 120 238 120C231.261 120 224.834 121.346 218.967 123.787C219.059 123.697 219.15 123.606 219.241 123.514C223.747 118.942 226.283 113.081 226.283 105.089C226.283 90.8488 217.181 78.8397 205.028 76.458C210.259 75.3439 214.44 72.1224 217.743 67.7926C221.488 62.8824 224.148 56.5001 226.017 49.9791L226.192 50.0316L239.006 7.23759L250.259 48.0591L250.12 48.0991C252.34 55.8203 255.139 62.9821 259.163 68.2271C262.387 72.4307 266.417 75.4226 271.542 76.4715C259.431 78.8849 250.37 90.8761 250.37 105.089ZM202.201 133.603C203.233 133.198 204.241 132.786 205.224 132.363C194.672 141.622 188 155.274 188 170.5C188 186.424 195.297 200.626 206.699 209.882C204.787 209.109 202.816 208.489 200.823 208.026L200.794 208.151L86.2843 172.706L86.3857 172.66L202.317 133.949L202.201 133.603ZM226.283 237.183C226.283 228.39 222.66 221.45 217.236 216.453C223.56 219.373 230.592 221 238 221C246.578 221 254.651 218.818 261.706 214.974C260.347 215.976 259.078 217.061 257.915 218.24C253.26 222.96 250.37 229.131 250.37 237.183C250.37 251.461 259.439 263.512 271.563 265.926C266.426 266.976 262.39 269.984 259.161 274.211C255.139 279.478 252.339 286.671 250.119 294.425L250.259 294.465L239.006 335.465L226.192 292.484L226.017 292.536C224.148 285.988 221.489 279.578 217.744 274.647C214.437 270.293 210.25 267.054 205.008 265.939C217.173 263.557 226.283 251.489 226.283 237.183ZM273.758 208.736C271.315 209.629 268.955 210.653 266.734 211.833C279.596 202.695 288 187.589 288 170.5C288 155.371 281.413 141.796 270.978 132.541L389.752 171.73L273.698 208.547L273.758 208.736ZM36.9786 144.131C46.8584 160.627 63.0451 166.462 82.4613 171.862L79.7347 172.773L80.7661 173.092C71.6383 177.543 63.824 182.368 57.6457 188.361C51.3067 194.51 46.7394 201.838 44.1835 211.121C40.4965 201.924 36.2952 195.227 30.38 190.499C24.5487 185.839 17.2417 183.243 7.60024 181.835C16.1292 177.809 22.5915 173.546 27.3397 167.805C32.3314 161.77 35.2915 154.275 36.9786 144.131ZM182.134 84.8833C185.858 80.522 190.785 77.4686 196.339 76.4245C191.204 75.3819 186.62 72.6145 183.049 68.686C183.668 70.8371 184 73.1178 184 75.4797C184 78.8227 183.334 82.003 182.134 84.8833ZM292 75.4797C292 78.3644 292.496 81.1279 293.403 83.6821C289.832 79.9627 285.32 77.3699 280.294 76.4245C285.019 75.4646 289.277 73.0425 292.708 69.5984C292.246 71.4783 292 73.449 292 75.4797ZM314.5 97.0262C325.737 97.0262 335 87.4662 335 75.4797C335 63.4933 325.737 53.9332 314.5 53.9332C303.263 53.9332 294 63.4933 294 75.4797C294 87.4662 303.263 97.0262 314.5 97.0262ZM182 75.4797C182 87.4662 172.737 97.0262 161.5 97.0262C150.263 97.0262 141 87.4662 141 75.4797C141 63.4933 150.263 53.9332 161.5 53.9332C172.737 53.9332 182 63.4933 182 75.4797ZM452.283 175.26C447.563 181.292 444.97 188.757 443.796 198.812C432.884 182.263 416.054 176.582 395.887 171.231C405.783 166.472 414.16 161.351 420.55 154.88C426.625 148.728 430.849 141.413 432.947 132.175C437.158 141.361 441.745 148.02 447.953 152.698C454.071 157.308 461.582 159.858 471.422 161.216C463.063 165.25 456.774 169.521 452.283 175.26ZM196.361 265.973C190.796 264.928 185.861 261.858 182.132 257.472C183.333 260.366 184 263.562 184 266.922C184 269.296 183.667 271.588 183.048 273.75C186.624 269.799 191.216 267.017 196.361 265.973ZM293.404 258.679C292.496 261.246 292 264.023 292 266.922C292 268.963 292.246 270.944 292.709 272.833C289.273 269.369 285.007 266.934 280.272 265.973C285.309 265.027 289.828 262.42 293.404 258.679ZM194.932 244.714H194.932L195.058 244.716C196.113 244.739 197.124 244.759 198.09 244.753C200.035 244.74 201.72 244.618 203.107 244.223C204.47 243.834 205.493 243.195 206.195 242.171C206.909 241.13 207.375 239.569 207.375 237.183C207.375 227.642 199.961 220.038 191.805 220.038C183.699 220.038 176.911 227.585 176.911 237.183H174.911C174.911 226.738 182.354 218.038 191.805 218.038C201.204 218.038 209.375 226.682 209.375 237.183C209.375 239.807 208.866 241.813 207.845 243.302C206.812 244.809 205.337 245.666 203.656 246.146C201.997 246.619 200.088 246.74 198.103 246.753C197.105 246.759 196.067 246.738 195.016 246.716L194.897 246.713H194.896L194.895 246.713H194.895H194.895H194.895H194.894H194.894H194.894H194.894H194.893L194.892 246.713C193.876 246.692 192.847 246.67 191.805 246.67C191.252 246.67 190.805 246.222 190.805 245.67C190.805 245.117 191.252 244.67 191.805 244.67C192.87 244.67 193.919 244.692 194.931 244.713L194.932 244.714ZM335 266.922C335 254.87 325.729 245.272 314.5 245.272C303.271 245.272 294 254.87 294 266.922C294 278.974 303.271 288.572 314.5 288.572C325.729 288.572 335 278.974 335 266.922ZM161.5 245.272C172.729 245.272 182 254.87 182 266.922C182 278.974 172.729 288.572 161.5 288.572C150.271 288.572 141 278.974 141 266.922C141 254.87 150.271 245.272 161.5 245.272ZM277.941 195.551C282.415 188.282 285 179.699 285 170.5C285 144.238 263.929 123 238 123C237.971 123 237.942 123 237.913 123C248.938 155.479 257.616 171.672 277.941 195.551ZM275.622 198.975C267.044 210.531 253.376 218 238 218C222.145 218 208.107 210.06 199.592 197.885C207.961 189.036 214.736 180.185 220.008 171.583C222.315 176.204 225.459 179.47 229.169 181.857C233.75 184.803 239.106 186.346 244.524 187.564C246.256 187.954 247.993 188.312 249.724 188.67C259.042 190.594 268.204 192.487 275.622 198.975ZM197.375 194.404C193.323 187.386 191 179.22 191 170.5C191 145.701 209.789 125.382 233.715 123.195C229.567 141.731 225.132 154.668 218.573 166.156C213.357 175.292 206.339 184.822 197.375 194.404ZM231.333 178.492C227.628 176.11 224.557 172.69 222.506 167.328C228.325 156.925 232.466 145.412 236.18 130.224C245.104 155.49 253.107 170.934 267.821 189.543C262.065 187.102 255.99 185.859 250.307 184.697L250.304 184.696C248.63 184.354 246.99 184.019 245.402 183.662C240.072 182.463 235.294 181.04 231.333 178.492Z" fill="black"/>
</g>
<defs>
<filter id="filter0_d" x="0" y="0" width="491" height="350.732" filterUnits="userSpaceOnUse" color-interpolation-filters="sRGB">
<feFlood flood-opacity="0" result="BackgroundImageFix"/>
<feColorMatrix in="SourceAlpha" type="matrix" values="0 0 0 0 0 0 0 0 0 0 0 0 0 0 0 0 0 0 127 0"/>
<feOffset dx="8" dy="4"/>
<feGaussianBlur stdDeviation="2"/>
<feColorMatrix type="matrix" values="0 0 0 0 0 0 0 0 0 0 0 0 0 0 0 0 0 0 0.25 0"/>
<feBlend mode="normal" in2="BackgroundImageFix" result="effect1_dropShadow"/>
<feBlend mode="normal" in="SourceGraphic" in2="effect1_dropShadow" result="shape"/>
</filter>
</defs>
</svg>
